<svg xmlns="http://www.w3.org/2000/svg" viewBox="0 0 8.98 21.07">
  <defs>
    <style>
      .cls-1 {
        fill: #fff;
      }
    </style>
  </defs>
  <g id="Layer_2" data-name="Layer 2">
    <g id="Layer_1-2" data-name="Layer 1">
      <path class="cls-1" d="M5.36,21.07A15.68,15.68,0,0,1,.19,19.5C.1,19.12.05,18.79,0,18.45c.73.31,1.49.64,2.25.94.38.14.76.28,1.13.4s.79.25,1.17.35a24,24,0,0,1-.73-3.78c-.34-2.71-.53-5.42-.67-8.14C3.09,6.87,3,5.51,3,4.15A41.23,41.23,0,0,1,3,0l.78.15c-.09,1.22,0,2.65,0,4s.09,2.7.15,4.05c.14,2.7.33,5.41.67,8.08a23,23,0,0,0,.7,3.64,10.24,10.24,0,0,1,.83-.79c.29-.26.59-.51.89-.75.59-.47,1.19-.91,1.82-1.38,0,.27.08.54.13.75-.66.47-1.33,1-1.95,1.5-.31.26-.62.58-.91.85A3.75,3.75,0,0,0,5.36,21.07Z"/>
    </g>
  </g>
</svg>
