<svg id="Layer_1" data-name="Layer 1" xmlns="http://www.w3.org/2000/svg" viewBox="0 0 638.23 423.04"><defs><style>.cls-1,.cls-2,.cls-3,.cls-6,.cls-8{fill:none;}.cls-1,.cls-2,.cls-3{stroke:#8ca4d5;}.cls-1,.cls-2,.cls-3,.cls-8{stroke-width:1.7px;}.cls-2{stroke-dasharray:2.48 9.91;}.cls-3{stroke-dasharray:3.27 13.06;}.cls-4{fill:#fbcb9b;}.cls-5{fill:#fff;}.cls-6,.cls-8{stroke:#fff;stroke-miterlimit:10;}.cls-6{stroke-width:3.4px;}.cls-7{fill:#8ca4d5;}</style></defs><polyline class="cls-1" points="259.4 241.35 259.09 243.02 257.42 242.71"/><line class="cls-2" x1="247.68" y1="240.9" x2="240.37" y2="239.54"/><polyline class="cls-1" points="235.5 238.63 233.83 238.32 234.14 236.65"/><line class="cls-3" x1="236.53" y1="223.81" x2="271.2" y2="37.64"/><polyline class="cls-1" points="272.4 31.22 272.71 29.55 274.38 29.86"/><line class="cls-2" x1="284.12" y1="31.67" x2="291.42" y2="33.03"/><polyline class="cls-1" points="296.3 33.94 297.96 34.25 297.65 35.92"/><line class="cls-3" x1="295.26" y1="48.76" x2="260.59" y2="234.93"/><path class="cls-4" d="M25.7,33.86v12H24.08v-12H19.6V32.45H30.19v1.41Z"/><path class="cls-4" d="M32.55,31.65H34.1v5.93h.07A2.83,2.83,0,0,1,37,35.73c2.08,0,3.45,1.39,3.45,3.79V45.9H38.91V39.79c0-1.81-.83-2.69-2.35-2.69-1.23,0-2.46.59-2.46,1.9v6.9H32.55Z"/><path class="cls-4" d="M43.51,41c0-3.18,1.87-5.22,4.57-5.22s4.4,2,4.4,4.85v.73H45.13v.47a2.87,2.87,0,0,0,3,3A3,3,0,0,0,51,43.07l1.14.77a4.18,4.18,0,0,1-4,2.29C45.32,46.13,43.51,44.09,43.51,41ZM45.13,40v.14h5.7V40a2.71,2.71,0,0,0-2.75-3A2.9,2.9,0,0,0,45.13,40Z"/><path class="cls-4" d="M73.72,39.79H68.49V45.9H66.87V32.45h1.62v5.94h5.23V32.45h1.62V45.9H73.72Z"/><path class="cls-4" d="M78.62,45.9V32.45H86.9v1.41H80.23v4.53h6.43v1.4H80.23v4.7H86.9V45.9Z"/><path class="cls-4" d="M90.05,45.9V44.61H93.4V33.75H90.05v-1.3h8.32v1.3H95V44.61h3.35V45.9Z"/><path class="cls-4" d="M108.54,44.11h-.1a3,3,0,0,1-3,2c-2.91,0-4.33-2.47-4.33-6.86,0-4.58,1.56-7.05,4.79-7.05a4.16,4.16,0,0,1,4.18,3l-1.39.64c-.48-1.2-1.11-2.18-2.73-2.18-2.16,0-3.14,1.75-3.14,4.45v2.08c0,2.69.79,4.6,3,4.6a2.63,2.63,0,0,0,2.77-2.83V40.54h-2.83V39.25H110V45.9h-1.5Z"/><path class="cls-4" d="M119.94,39.79H114.7V45.9h-1.62V32.45h1.62v5.94h5.24V32.45h1.62V45.9h-1.62Z"/><path class="cls-4" d="M129.68,33.86v12h-1.61v-12h-4.49V32.45h10.59v1.41Z"/><path class="cls-4" d="M147.48,40.93c0-3.16,1.71-5.2,4.5-5.2s4.51,2,4.51,5.2-1.72,5.2-4.51,5.2S147.48,44.09,147.48,40.93Zm7.37.71V40.22c0-2.14-1.15-3.16-2.87-3.16s-2.87,1-2.87,3.16v1.42c0,2.14,1.16,3.16,2.87,3.16S154.85,43.78,154.85,41.64Z"/><path class="cls-4" d="M159.36,44.59h3.35V37.27h-3.55V36h3.55v-2a2,2,0,0,1,2.19-2.27h3.33V33h-4v3h4v1.31h-4v7.32h3.54V45.9h-8.43Z"/><path class="cls-4" d="M25.37,69.67a2,2,0,0,1-2.19-2.27V61.05H19.86V59.74h2.47c.65,0,.9-.23.9-.91v-2.6h1.49v3.51h4.52v1.31H24.72v7.31h4.52v1.31Z"/><path class="cls-4" d="M32.55,55.42H34.1v5.93h.07A2.83,2.83,0,0,1,37,59.51c2.08,0,3.45,1.38,3.45,3.79v6.37H38.91v-6.1c0-1.81-.83-2.7-2.35-2.7-1.23,0-2.46.6-2.46,1.91v6.89H32.55Z"/><path class="cls-4" d="M43.51,64.72c0-3.17,1.87-5.21,4.57-5.21s4.4,2,4.4,4.85v.73H45.13v.46a2.88,2.88,0,0,0,3,3A3,3,0,0,0,51,66.84l1.14.77a4.16,4.16,0,0,1-4,2.29C45.32,69.9,43.51,67.86,43.51,64.72Zm1.62-.92v.13h5.7v-.21a2.71,2.71,0,0,0-2.75-2.94A2.9,2.9,0,0,0,45.13,63.8Z"/><path class="cls-4" d="M67.16,55.42H68.7v5.93h.08a3.24,3.24,0,0,1,3.06-1.84c2.42,0,3.89,1.94,3.89,5.19s-1.47,5.2-3.89,5.2a3.24,3.24,0,0,1-3.06-1.84H68.7v1.61H67.16Zm6.91,10.13V63.86a2.71,2.71,0,0,0-2.83-3c-1.37,0-2.54.71-2.54,2V66.5c0,1.32,1.17,2,2.54,2A2.71,2.71,0,0,0,74.07,65.55Z"/><path class="cls-4" d="M86.41,69.67a1.62,1.62,0,0,1-1.77-1.61h-.09a2.87,2.87,0,0,1-3,1.84c-2.08,0-3.41-1.15-3.41-3S79.44,64,82.43,64h2.12V63a2.07,2.07,0,0,0-2.37-2.2,2.8,2.8,0,0,0-2.66,1.47l-1-.77a4,4,0,0,1,3.79-2c2.33,0,3.82,1.25,3.82,3.35v5.47h1.38v1.34Zm-1.86-2.89V65.15H82.43c-1.83,0-2.66.54-2.66,1.5v.4c0,1,.79,1.56,2.06,1.56C83.41,68.61,84.55,67.8,84.55,66.78Z"/><path class="cls-4" d="M89.92,68.36h2.91V61.05H89.92V59.74h4.45v2.5h.09a3.19,3.19,0,0,1,3.35-2.5H99.2v1.54H97.33a2.7,2.7,0,0,0-3,2.79v4.29h3.85v1.31h-8.3Z"/><path class="cls-4" d="M112.83,68l1-.91a4.59,4.59,0,0,0,3.6,1.56c1.55,0,2.64-.54,2.64-1.71s-.84-1.31-1.75-1.44l-1.56-.24c-1.4-.21-3.41-.59-3.41-2.75,0-2,1.7-3,4-3a5.27,5.27,0,0,1,4,1.59l-1,.95a3.74,3.74,0,0,0-3.1-1.25c-1.56,0-2.43.55-2.43,1.57s.87,1.31,1.76,1.45l1.56.23c1.42.21,3.4.6,3.4,2.75,0,2-1.65,3.1-4.19,3.1A5.88,5.88,0,0,1,112.83,68Z"/><path class="cls-4" d="M125,55.42h1.55v5.93h.07a2.83,2.83,0,0,1,2.83-1.84c2.08,0,3.45,1.38,3.45,3.79v6.37h-1.54v-6.1c0-1.81-.83-2.7-2.35-2.7-1.23,0-2.46.6-2.46,1.91v6.89H125Z"/><path class="cls-4" d="M135.92,64.7c0-3.15,1.72-5.19,4.51-5.19s4.5,2,4.5,5.19-1.71,5.2-4.5,5.2S135.92,67.86,135.92,64.7Zm7.38.72V64c0-2.14-1.16-3.16-2.87-3.16s-2.87,1-2.87,3.16v1.43c0,2.13,1.15,3.16,2.87,3.16S143.3,67.55,143.3,65.42Z"/><path class="cls-4" d="M146.78,59.74h1.37l1.14,8.59h.17l1.69-8.59h1.7l1.69,8.59h.18l1.13-8.59h1.33l-1.52,9.93h-2l-1.58-8.32h-.16l-1.61,8.32h-2Z"/><path class="cls-4" d="M159.05,68l1-.91a4.56,4.56,0,0,0,3.6,1.56c1.54,0,2.64-.54,2.64-1.71s-.85-1.31-1.76-1.44L163,65.22c-1.41-.21-3.41-.59-3.41-2.75,0-2,1.69-3,4-3a5.31,5.31,0,0,1,4,1.59l-1,.95a3.73,3.73,0,0,0-3.1-1.25c-1.56,0-2.42.55-2.42,1.57s.86,1.31,1.75,1.45l1.56.23c1.43.21,3.41.6,3.41,2.75,0,2-1.66,3.1-4.2,3.1A5.85,5.85,0,0,1,159.05,68Z"/><path class="cls-4" d="M21,79.2h1.54v5.93h.08a2.82,2.82,0,0,1,2.83-1.85c2.08,0,3.45,1.39,3.45,3.8v6.37H27.36v-6.1c0-1.81-.83-2.7-2.35-2.7-1.24,0-2.47.6-2.47,1.91v6.89H21Z"/><path class="cls-4" d="M31.94,88.48c0-3.16,1.71-5.2,4.5-5.2s4.51,2,4.51,5.2-1.71,5.2-4.51,5.2S31.94,91.64,31.94,88.48Zm7.37.71V87.77c0-2.14-1.15-3.16-2.87-3.16s-2.86,1-2.86,3.16v1.42c0,2.14,1.15,3.16,2.86,3.16S39.31,91.33,39.31,89.19Z"/><path class="cls-4" d="M42.8,83.51h1.37L45.3,92.1h.18l1.69-8.59h1.69l1.7,8.59h.17l1.14-8.59H53.2l-1.52,9.94h-2l-1.58-8.32h-.15l-1.62,8.32h-2Z"/><path class="cls-4" d="M66.37,93.45V83.51h1.42v1.16h.08a1.91,1.91,0,0,1,1.91-1.39,1.65,1.65,0,0,1,1.81,1.56h.06a2.18,2.18,0,0,1,2.15-1.56c1.62,0,2,1.18,2,3.28v6.89H74.42V86.81c0-1.7-.29-2.26-1.22-2.26s-1.38.54-1.38,1.6v7.3H70.39V86.81c0-1.7-.29-2.26-1.19-2.26s-1.41.54-1.41,1.6v7.3Z"/><path class="cls-4" d="M86.41,93.45a1.62,1.62,0,0,1-1.77-1.62h-.09a2.87,2.87,0,0,1-3,1.85c-2.08,0-3.41-1.15-3.41-3s1.29-2.89,4.28-2.89h2.12v-1c0-1.45-.87-2.2-2.37-2.2a2.8,2.8,0,0,0-2.66,1.47l-1-.77a4,4,0,0,1,3.79-2c2.33,0,3.82,1.25,3.82,3.35V92.1h1.38v1.35Zm-1.86-2.89V88.92H82.43c-1.83,0-2.66.54-2.66,1.51v.4c0,1,.79,1.56,2.06,1.56C83.41,92.39,84.55,91.58,84.55,90.56Z"/><path class="cls-4" d="M90.32,93.45V83.51h1.54v1.62h.08a2.82,2.82,0,0,1,2.83-1.85c2.08,0,3.45,1.39,3.45,3.8v6.37H96.68v-6.1c0-1.81-.83-2.7-2.35-2.7-1.23,0-2.47.6-2.47,1.91v6.89Z"/><path class="cls-4" d="M109,83.51h1.54l-4.93,12.12a2.31,2.31,0,0,1-2.54,1.67h-1.46V96h2.31L105,93.26l-4-9.75h1.58l1.68,4.16,1.48,3.78h.07l1.49-3.78Z"/><path class="cls-4" d="M125,79.2h1.55v5.93h.07a2.83,2.83,0,0,1,2.83-1.85c2.08,0,3.45,1.39,3.45,3.8v6.37h-1.54v-6.1c0-1.81-.83-2.7-2.35-2.7-1.23,0-2.46.6-2.46,1.91v6.89H125Z"/><path class="cls-4" d="M144.18,93.45a1.62,1.62,0,0,1-1.77-1.62h-.09a2.87,2.87,0,0,1-3,1.85c-2.08,0-3.41-1.15-3.41-3s1.29-2.89,4.28-2.89h2.12v-1c0-1.45-.87-2.2-2.37-2.2a2.8,2.8,0,0,0-2.66,1.47l-1-.77a4,4,0,0,1,3.79-2c2.33,0,3.82,1.25,3.82,3.35V92.1h1.38v1.35Zm-1.86-2.89V88.92H140.2c-1.83,0-2.66.54-2.66,1.51v.4c0,1,.79,1.56,2.06,1.56C141.18,92.39,142.32,91.58,142.32,90.56Z"/><path class="cls-4" d="M151,93.45l-3.56-9.94H149l1.42,4.16L152,92.16H152l1.54-4.49L155,83.51h1.53L153,93.45Z"/><path class="cls-4" d="M159.05,88.5c0-3.18,1.87-5.22,4.56-5.22s4.41,2,4.41,4.86v.73h-7.35v.46a2.87,2.87,0,0,0,3,3,3,3,0,0,0,2.85-1.73l1.13.77a4.15,4.15,0,0,1-4,2.29C160.86,93.68,159.05,91.64,159.05,88.5Zm1.62-.92v.13h5.7V87.5a2.72,2.72,0,0,0-2.76-3A2.9,2.9,0,0,0,160.67,87.58Z"/><path class="cls-4" d="M24.91,121.31c-3.2,0-4.51-.89-4.51-2.47a1.86,1.86,0,0,1,1.62-1.9v-.23a1.41,1.41,0,0,1-.88-1.37c0-1,.77-1.48,1.79-1.73v-.08a3.19,3.19,0,0,1-1.95-3c0-2,1.52-3.43,3.85-3.43a4.5,4.5,0,0,1,2,.4v-.17c0-.77.32-1.35,1.19-1.35h1.83v1.35H27.59V108a3.26,3.26,0,0,1,1.11,2.53c0,2-1.54,3.42-3.87,3.42a4.9,4.9,0,0,1-.94-.07c-.6.11-1.43.46-1.43,1.13s.66.73,1.6.73h2.2c2.56,0,3.66,1,3.66,2.66C29.92,120.37,28.22,121.31,24.91,121.31Zm1.41-4.18H22.87a1.39,1.39,0,0,0-1,1.35c0,.86.63,1.6,2.25,1.6h1.5c1.79,0,2.85-.56,2.85-1.64C28.47,117.65,27.91,117.13,26.32,117.13Zm.77-6.37v-.56c0-1.18-.72-2-2.26-2s-2.23.77-2.23,2v.56c0,1.17.71,2,2.23,2S27.09,111.93,27.09,110.76Z"/><path class="cls-4" d="M32.71,115.92h3.58V108.6H32.71v-1.31h5.12v8.63h3.35v1.31H32.71Zm3.14-11.81v-.31c0-.55.33-1,1.21-1s1.21.43,1.21,1v.31c0,.56-.32,1-1.21,1S35.85,104.67,35.85,104.11Z"/><path class="cls-4" d="M47,117.23l-3.57-9.94H45l1.43,4.16L48,115.94h.08l1.54-4.49L51,107.29h1.52L49,117.23Z"/><path class="cls-4" d="M55.07,112.28c0-3.18,1.86-5.22,4.56-5.22s4.41,2,4.41,4.85v.73H56.68v.47a2.88,2.88,0,0,0,3,3,3,3,0,0,0,2.84-1.73l1.14.77a4.16,4.16,0,0,1-4,2.29C56.88,117.46,55.07,115.42,55.07,112.28Zm1.61-.93v.14h5.7v-.21a2.71,2.71,0,0,0-2.75-3A2.9,2.9,0,0,0,56.68,111.35Z"/><path class="cls-4" d="M67.22,117.23v-9.94h1.54v1.62h.07a2.83,2.83,0,0,1,2.83-1.85c2.08,0,3.45,1.39,3.45,3.79v6.38H73.57v-6.11c0-1.81-.83-2.69-2.35-2.69-1.23,0-2.46.59-2.46,1.9v6.9Z"/><path class="cls-4" d="M94.69,117.23A2,2,0,0,1,92.5,115V108.6H89.19v-1.31h2.46c.66,0,.91-.23.91-.91v-2.59H94v3.5h4.53v1.31H94v7.32h4.53v1.31Z"/><path class="cls-4" d="M101.88,103h1.54v5.93h.07a2.83,2.83,0,0,1,2.83-1.85c2.08,0,3.45,1.39,3.45,3.79v6.38h-1.54v-6.11c0-1.81-.83-2.69-2.35-2.69-1.23,0-2.46.59-2.46,1.9v6.9h-1.54Z"/><path class="cls-4" d="M121.08,117.23a1.63,1.63,0,0,1-1.78-1.62h-.09a2.87,2.87,0,0,1-3,1.85c-2.08,0-3.41-1.16-3.41-3s1.3-2.88,4.28-2.88h2.12v-1c0-1.44-.87-2.19-2.37-2.19a2.81,2.81,0,0,0-2.66,1.46l-1-.77a4,4,0,0,1,3.8-2c2.33,0,3.81,1.25,3.81,3.35v5.47h1.38v1.35Zm-1.87-2.89V112.7h-2.12c-1.83,0-2.66.54-2.66,1.5v.41c0,1,.79,1.56,2.06,1.56C118.07,116.17,119.21,115.36,119.21,114.34Z"/><path class="cls-4" d="M129.36,117.23a2,2,0,0,1-2.2-2.28V108.6h-3.31v-1.31h2.46c.66,0,.91-.23.91-.91v-2.59h1.48v3.5h4.53v1.31H128.7v7.32h4.53v1.31Z"/><path class="cls-4" d="M28.65,141a1.63,1.63,0,0,1-1.78-1.61h-.09a2.87,2.87,0,0,1-3,1.84c-2.08,0-3.41-1.15-3.41-3s1.3-2.89,4.28-2.89h2.12v-1a2.07,2.07,0,0,0-2.37-2.2,2.8,2.8,0,0,0-2.66,1.47l-1-.77a4,4,0,0,1,3.8-2c2.33,0,3.81,1.25,3.81,3.35v5.47H29.7V141Zm-1.87-2.89v-1.63H24.66c-1.83,0-2.66.54-2.66,1.5v.4c0,1,.79,1.56,2.06,1.56C25.64,139.94,26.78,139.13,26.78,138.11Z"/><path class="cls-4" d="M32.55,141v-9.93H34.1v1.61h.07A2.83,2.83,0,0,1,37,130.84c2.08,0,3.45,1.38,3.45,3.79V141H38.91v-6.1c0-1.81-.83-2.7-2.35-2.7-1.23,0-2.46.6-2.46,1.91V141Z"/><path class="cls-4" d="M43.51,139.29l1-.91a4.56,4.56,0,0,0,3.6,1.56c1.54,0,2.64-.54,2.64-1.71s-.85-1.31-1.75-1.44l-1.56-.24c-1.41-.21-3.41-.59-3.41-2.75,0-2,1.69-3,4-3a5.27,5.27,0,0,1,4,1.59l-1,.95a3.74,3.74,0,0,0-3.1-1.25c-1.56,0-2.43.55-2.43,1.57s.87,1.31,1.75,1.45l1.56.23c1.43.21,3.41.6,3.41,2.75,0,2-1.65,3.1-4.2,3.1A5.85,5.85,0,0,1,43.51,139.29Z"/><path class="cls-4" d="M54.35,131.07h1.37l1.14,8.59H57l1.69-8.59h1.7l1.69,8.59h.18l1.13-8.59h1.33L63.23,141h-2l-1.58-8.32h-.16L57.88,141h-2Z"/><path class="cls-4" d="M66.62,136.05c0-3.17,1.87-5.21,4.56-5.21s4.41,2,4.41,4.85v.73H68.24v.46a2.88,2.88,0,0,0,3,3,3,3,0,0,0,2.85-1.74l1.14.77a4.17,4.17,0,0,1-4,2.29C68.43,141.23,66.62,139.19,66.62,136.05Zm1.62-.92v.13h5.7v-.21a2.71,2.71,0,0,0-2.76-2.94A2.9,2.9,0,0,0,68.24,135.13Z"/><path class="cls-4" d="M78.36,139.69h2.91v-7.31H78.36v-1.31h4.45v2.5h.1a3.18,3.18,0,0,1,3.35-2.5h1.39v1.54H85.78a2.71,2.71,0,0,0-3,2.79v4.29h3.85V141h-8.3Z"/><path class="cls-4" d="M101.28,139.29l1-.91a4.56,4.56,0,0,0,3.6,1.56c1.54,0,2.64-.54,2.64-1.71s-.85-1.31-1.75-1.44l-1.56-.24c-1.41-.21-3.41-.59-3.41-2.75,0-2,1.69-3,4-3a5.31,5.31,0,0,1,4,1.59l-1,.95a3.76,3.76,0,0,0-3.1-1.25c-1.56,0-2.43.55-2.43,1.57s.87,1.31,1.75,1.45l1.56.23c1.43.21,3.41.6,3.41,2.75,0,2-1.66,3.1-4.2,3.1A5.85,5.85,0,0,1,101.28,139.29Z"/><path class="cls-4" d="M112.81,136c0-3.16,1.72-5.2,4.51-5.2s4.51,2,4.51,5.2-1.72,5.19-4.51,5.19S112.81,139.19,112.81,136Zm7.38.71v-1.43c0-2.14-1.16-3.16-2.87-3.16s-2.87,1-2.87,3.16v1.43c0,2.13,1.16,3.16,2.87,3.16S120.19,138.88,120.19,136.75Z"/><path class="cls-4" d="M136.25,139.69h3.35v-7.31h-3.54v-1.31h3.54v-2a2,2,0,0,1,2.2-2.28h3.33v1.31h-4v3h4v1.31h-4v7.31h3.54V141h-8.43Z"/><path class="cls-4" d="M155.74,141a1.61,1.61,0,0,1-1.77-1.61h-.1a2.87,2.87,0,0,1-3,1.84c-2.08,0-3.4-1.15-3.4-3s1.29-2.89,4.27-2.89h2.12v-1a2.07,2.07,0,0,0-2.37-2.2,2.8,2.8,0,0,0-2.66,1.47l-1-.77a4,4,0,0,1,3.8-2c2.33,0,3.81,1.25,3.81,3.35v5.47h1.39V141Zm-1.87-2.89v-1.63h-2.12c-1.83,0-2.66.54-2.66,1.5v.4c0,1,.79,1.56,2.06,1.56C152.73,139.94,153.87,139.13,153.87,138.11Z"/><path class="cls-4" d="M159.24,139.69h2.91v-7.31h-2.91v-1.31h4.45v2.5h.1a3.18,3.18,0,0,1,3.35-2.5h1.38v1.54h-1.87a2.7,2.7,0,0,0-3,2.79v4.29h3.85V141h-8.3Z"/><path class="cls-4" d="M73.86,337.84a2,2,0,0,1-2.2-2.28v-6.35H68.35V327.9h2.47c.65,0,.9-.23.9-.9v-2.6H73.2v3.5h4.53v1.31H73.2v7.32h4.53v1.31Z"/><path class="cls-4" d="M81,323.59h1.54v5.93h.08a2.82,2.82,0,0,1,2.83-1.85c2.08,0,3.45,1.39,3.45,3.79v6.38H87.4v-6.11c0-1.81-.83-2.69-2.35-2.69-1.23,0-2.47.59-2.47,1.9v6.9H81Z"/><path class="cls-4" d="M92,332.89c0-3.18,1.87-5.22,4.56-5.22s4.41,2,4.41,4.85v.73H93.62v.47a2.87,2.87,0,0,0,3,3A3,3,0,0,0,99.51,335l1.14.77a4.17,4.17,0,0,1-4,2.29C93.81,338.07,92,336,92,332.89Zm1.62-.93v.14h5.7v-.21a2.72,2.72,0,0,0-2.76-2.95A2.9,2.9,0,0,0,93.62,332Z"/><path class="cls-4" d="M123.08,337.84,121.94,334h-4.72l-1.13,3.84h-1.68l4.12-13.44h2.14l4.12,13.44Zm-3.41-11.73h-.17l-1.89,6.49h4Z"/><path class="cls-4" d="M128.51,326.46h-.14v11.38h-1.46V324.4h2.29l4.58,11.26h.14V324.4h1.46v13.44h-2.29Z"/><path class="cls-4" d="M145.47,336.05h-.09a3,3,0,0,1-3,2c-2.9,0-4.33-2.47-4.33-6.86,0-4.58,1.56-7,4.8-7a4.17,4.17,0,0,1,4.18,2.95l-1.39.64c-.48-1.2-1.12-2.18-2.74-2.18-2.15,0-3.13,1.75-3.13,4.45v2.08c0,2.69.79,4.6,3,4.6a2.63,2.63,0,0,0,2.77-2.83v-1.39h-2.83v-1.29H147v6.65h-1.51Z"/><path class="cls-4" d="M150.79,337.84V324.4h1.62v12h6.37v1.41Z"/><path class="cls-4" d="M161.76,337.84V324.4H170v1.4h-6.66v4.53h6.43v1.4h-6.43v4.7H170v1.41Z"/><path class="cls-4" d="M184.41,332.87c0-3.16,1.71-5.2,4.51-5.2s4.5,2,4.5,5.2-1.71,5.2-4.5,5.2S184.41,336,184.41,332.87Zm7.37.71v-1.42c0-2.14-1.15-3.16-2.86-3.16s-2.87,1-2.87,3.16v1.42c0,2.14,1.15,3.16,2.87,3.16S191.78,335.72,191.78,333.58Z"/><path class="cls-4" d="M196.29,336.53h3.35v-7.32H196.1V327.9h3.54v-2a2,2,0,0,1,2.2-2.27h3.33v1.31h-4v3h4v1.31h-4v7.32h3.54v1.31h-8.43Z"/><path class="cls-4" d="M224.06,337.84a2,2,0,0,1-2.2-2.28v-6.35h-3.31V327.9H221c.65,0,.9-.23.9-.9v-2.6h1.48v3.5h4.53v1.31H223.4v7.32h4.53v1.31Z"/><path class="cls-4" d="M231.24,323.59h1.54v5.93h.08a2.82,2.82,0,0,1,2.83-1.85c2.08,0,3.45,1.39,3.45,3.79v6.38H237.6v-6.11c0-1.81-.83-2.69-2.35-2.69-1.24,0-2.47.59-2.47,1.9v6.9h-1.54Z"/><path class="cls-4" d="M242.2,332.89c0-3.18,1.87-5.22,4.56-5.22s4.41,2,4.41,4.85v.73h-7.35v.47a2.87,2.87,0,0,0,3,3,3,3,0,0,0,2.85-1.73l1.13.77a4.15,4.15,0,0,1-4,2.29C244,338.07,242.2,336,242.2,332.89Zm1.62-.93v.14h5.69v-.21a2.71,2.71,0,0,0-2.75-2.95A2.9,2.9,0,0,0,243.82,332Z"/><path class="cls-4" d="M265.3,336.12l1-.9a4.62,4.62,0,0,0,3.6,1.56c1.55,0,2.64-.54,2.64-1.72s-.84-1.31-1.75-1.44l-1.56-.23c-1.4-.21-3.41-.6-3.41-2.76,0-2,1.7-3,4-3a5.27,5.27,0,0,1,4,1.6l-1,.94a3.74,3.74,0,0,0-3.1-1.25c-1.56,0-2.43.56-2.43,1.58s.87,1.31,1.76,1.44l1.56.23c1.42.22,3.41.6,3.41,2.76,0,2-1.66,3.1-4.2,3.1A5.85,5.85,0,0,1,265.3,336.12Z"/><path class="cls-4" d="M281.83,337.84a2,2,0,0,1-2.2-2.28v-6.35h-3.31V327.9h2.46c.66,0,.91-.23.91-.9v-2.6h1.48v3.5h4.53v1.31h-4.53v7.32h4.53v1.31Z"/><path class="cls-4" d="M296.65,337.84a1.63,1.63,0,0,1-1.77-1.62h-.09a2.87,2.87,0,0,1-3,1.85c-2.08,0-3.41-1.16-3.41-3s1.29-2.88,4.28-2.88h2.12v-1c0-1.44-.87-2.19-2.37-2.19a2.81,2.81,0,0,0-2.66,1.46l-1-.77a4,4,0,0,1,3.79-2c2.33,0,3.82,1.25,3.82,3.35v5.47h1.38v1.35ZM294.79,335v-1.64h-2.12c-1.83,0-2.66.54-2.66,1.5v.41c0,1,.79,1.56,2.06,1.56C293.65,336.78,294.79,336,294.79,335Z"/><path class="cls-4" d="M300.29,332.87c0-3.16,1.68-5.2,4.49-5.2a3.68,3.68,0,0,1,3.68,2.29l-1.23.66a2.4,2.4,0,0,0-2.45-1.62,2.74,2.74,0,0,0-2.83,3v1.7a2.74,2.74,0,0,0,2.87,3,2.78,2.78,0,0,0,2.69-1.73l1.1.75a3.88,3.88,0,0,1-3.81,2.31C302,338.07,300.29,336,300.29,332.87Z"/><path class="cls-4" d="M312.25,323.59h1.54v9h.08l1.73-1.64,3.31-3h1.89l-4.12,3.89,4.6,6h-1.9l-3.87-5.16-1.72,1.56v3.6h-1.54Z"/><path class="cls-4" d="M335.38,336.53H339v-7.32h-3.58V327.9h5.12v8.63h3.35v1.31h-8.47Zm3.14-11.81v-.31c0-.55.32-1,1.21-1s1.21.43,1.21,1v.31c0,.56-.32,1-1.21,1S338.52,325.28,338.52,324.72Z"/><path class="cls-4" d="M346.78,337.84V327.9h1.54v1.62h.08a2.82,2.82,0,0,1,2.83-1.85c2.08,0,3.44,1.39,3.44,3.79v6.38h-1.54v-6.11c0-1.81-.83-2.69-2.35-2.69-1.23,0-2.46.59-2.46,1.9v6.9Z"/><path class="cls-4" d="M364.63,336.22h-.08a3.25,3.25,0,0,1-3.06,1.85c-2.43,0-3.89-1.95-3.89-5.2s1.46-5.2,3.89-5.2a3.23,3.23,0,0,1,3.06,1.85h.08v-5.93h1.54v14.25h-1.54Zm0-1.56v-3.58c0-1.33-1.18-2-2.54-2a2.7,2.7,0,0,0-2.83,3v1.7a2.7,2.7,0,0,0,2.83,3C363.45,336.7,364.63,336,364.63,334.66Z"/><path class="cls-4" d="M370,336.53h3.58v-7.32H370V327.9h5.12v8.63h3.35v1.31H370Zm3.14-11.81v-.31c0-.55.33-1,1.21-1s1.21.43,1.21,1v.31c0,.56-.32,1-1.21,1S373.18,325.28,373.18,324.72Z"/><path class="cls-4" d="M381.17,332.87c0-3.16,1.67-5.2,4.49-5.2a3.67,3.67,0,0,1,3.67,2.29l-1.23.66a2.39,2.39,0,0,0-2.44-1.62,2.75,2.75,0,0,0-2.84,3v1.7a2.74,2.74,0,0,0,2.87,3,2.79,2.79,0,0,0,2.7-1.73l1.1.75a3.88,3.88,0,0,1-3.81,2.31C382.82,338.07,381.17,336,381.17,332.87Z"/><path class="cls-4" d="M400.64,337.84a1.62,1.62,0,0,1-1.77-1.62h-.1a2.86,2.86,0,0,1-3,1.85c-2.08,0-3.4-1.16-3.4-3s1.29-2.88,4.27-2.88h2.12v-1c0-1.44-.87-2.19-2.37-2.19a2.81,2.81,0,0,0-2.66,1.46l-1-.77a4,4,0,0,1,3.8-2c2.33,0,3.81,1.25,3.81,3.35v5.47h1.39v1.35ZM398.77,335v-1.64h-2.12c-1.83,0-2.66.54-2.66,1.5v.41c0,1,.79,1.56,2.06,1.56C397.63,336.78,398.77,336,398.77,335Z"/><path class="cls-4" d="M408.92,337.84a2,2,0,0,1-2.2-2.28v-6.35h-3.31V327.9h2.46c.66,0,.91-.23.91-.9v-2.6h1.48v3.5h4.53v1.31h-4.53v7.32h4.53v1.31Z"/><path class="cls-4" d="M415.5,332.89c0-3.18,1.87-5.22,4.57-5.22s4.41,2,4.41,4.85v.73h-7.36v.47a2.87,2.87,0,0,0,3,3A3,3,0,0,0,423,335l1.14.77a4.16,4.16,0,0,1-4,2.29C417.31,338.07,415.5,336,415.5,332.89Zm1.62-.93v.14h5.7v-.21a2.71,2.71,0,0,0-2.75-2.95A2.9,2.9,0,0,0,417.12,332Z"/><path class="cls-4" d="M427.06,336.12l1-.9a4.59,4.59,0,0,0,3.6,1.56c1.54,0,2.64-.54,2.64-1.72s-.85-1.31-1.76-1.44l-1.56-.23c-1.4-.21-3.41-.6-3.41-2.76,0-2,1.7-3,4-3a5.27,5.27,0,0,1,4,1.6l-1,.94a3.73,3.73,0,0,0-3.1-1.25c-1.56,0-2.42.56-2.42,1.58s.86,1.31,1.75,1.44l1.56.23c1.42.22,3.41.6,3.41,2.76,0,2-1.66,3.1-4.2,3.1A5.83,5.83,0,0,1,427.06,336.12Z"/><path class="cls-4" d="M69.64,360.3h3.58V353H69.64v-1.31h5.12v8.62h3.35v1.31H69.64Zm3.14-11.8v-.31c0-.56.33-1,1.21-1s1.22.42,1.22,1v.31c0,.56-.33,1-1.22,1S72.78,349.06,72.78,348.5Z"/><path class="cls-4" d="M80.75,360.3H84.1V353H80.56v-1.31H84.1v-2a2,2,0,0,1,2.2-2.28h3.33v1.31h-4v3h4V353h-4v7.31h3.55v1.31H80.75Z"/><path class="cls-4" d="M108.52,361.61a2,2,0,0,1-2.19-2.27V353H103v-1.31h2.47c.65,0,.9-.23.9-.91v-2.6h1.49v3.51h4.52V353h-4.52v7.31h4.52v1.31Z"/><path class="cls-4" d="M115.7,347.36h1.54v5.93h.08a2.81,2.81,0,0,1,2.83-1.84c2.08,0,3.45,1.38,3.45,3.79v6.37h-1.54v-6.1c0-1.81-.83-2.7-2.35-2.7-1.23,0-2.47.6-2.47,1.91v6.89H115.7Z"/><path class="cls-4" d="M126.66,356.66c0-3.17,1.87-5.21,4.56-5.21s4.41,2,4.41,4.85V357h-7.35v.46a2.87,2.87,0,0,0,3,3,3,3,0,0,0,2.85-1.74l1.14.77a4.17,4.17,0,0,1-4,2.29C128.47,361.84,126.66,359.8,126.66,356.66Zm1.62-.92v.13H134v-.21a2.71,2.71,0,0,0-2.76-2.94A2.9,2.9,0,0,0,128.28,355.74Z"/><path class="cls-4" d="M156.66,360h-.08a3.24,3.24,0,0,1-3.06,1.84c-2.42,0-3.89-1.94-3.89-5.19s1.47-5.2,3.89-5.2a3.24,3.24,0,0,1,3.06,1.84h.08v-1.61h1.54v13.78h-1.54Zm0-1.56v-3.59c0-1.32-1.17-2-2.54-2a2.71,2.71,0,0,0-2.83,3v1.69a2.71,2.71,0,0,0,2.83,3C155.49,360.48,156.66,359.76,156.66,358.44Z"/><path class="cls-4" d="M168.16,360h-.08a2.81,2.81,0,0,1-2.83,1.84c-2.08,0-3.45-1.38-3.45-3.79v-6.37h1.54v6.1c0,1.81.83,2.7,2.35,2.7,1.23,0,2.47-.6,2.47-1.91v-6.89h1.54v9.93h-1.54Z"/><path class="cls-4" d="M172.87,356.66c0-3.17,1.87-5.21,4.57-5.21s4.41,2,4.41,4.85V357h-7.36v.46a2.88,2.88,0,0,0,3,3,3,3,0,0,0,2.85-1.74l1.14.77a4.16,4.16,0,0,1-4,2.29C174.69,361.84,172.87,359.8,172.87,356.66Zm1.62-.92v.13h5.7v-.21a2.7,2.7,0,0,0-2.75-2.94A2.9,2.9,0,0,0,174.49,355.74Z"/><path class="cls-4" d="M184.43,359.9l1-.91a4.56,4.56,0,0,0,3.6,1.56c1.54,0,2.64-.54,2.64-1.71s-.85-1.31-1.76-1.44l-1.55-.24c-1.41-.21-3.41-.59-3.41-2.75,0-2,1.69-3,4-3a5.31,5.31,0,0,1,4,1.59l-1,.95a3.73,3.73,0,0,0-3.1-1.25c-1.56,0-2.42.55-2.42,1.58s.86,1.3,1.75,1.44l1.56.23c1.43.21,3.41.6,3.41,2.75,0,2-1.66,3.1-4.2,3.1A5.85,5.85,0,0,1,184.43,359.9Z"/><path class="cls-4" d="M201,361.61a2,2,0,0,1-2.19-2.27V353h-3.32v-1.31h2.47c.65,0,.9-.23.9-.91v-2.6h1.49v3.51h4.52V353H200.3v7.31h4.52v1.31Z"/><path class="cls-4" d="M208.29,360.3h3.58V353h-3.58v-1.31h5.12v8.62h3.35v1.31h-8.47Zm3.14-11.8v-.31c0-.56.32-1,1.21-1s1.21.42,1.21,1v.31c0,.56-.32,1-1.21,1S211.43,349.06,211.43,348.5Z"/><path class="cls-4" d="M219.07,356.65c0-3.16,1.71-5.2,4.51-5.2s4.5,2,4.5,5.2-1.71,5.19-4.5,5.19S219.07,359.8,219.07,356.65Zm7.38.71v-1.43c0-2.14-1.16-3.16-2.87-3.16s-2.87,1-2.87,3.16v1.43c0,2.14,1.15,3.16,2.87,3.16S226.45,359.5,226.45,357.36Z"/><path class="cls-4" d="M231.24,361.61v-9.93h1.54v1.61h.08a2.81,2.81,0,0,1,2.83-1.84c2.08,0,3.45,1.38,3.45,3.79v6.37H237.6v-6.1c0-1.81-.83-2.7-2.35-2.7-1.24,0-2.47.6-2.47,1.91v6.89Z"/><path class="cls-4" d="M254,360.3h3.47V348.67H254v-1.31h5V360.3h3.46v1.31H254Z"/><path class="cls-4" d="M265.3,356.66c0-3.17,1.87-5.21,4.57-5.21s4.41,2,4.41,4.85V357h-7.36v.46a2.88,2.88,0,0,0,3,3,3,3,0,0,0,2.85-1.74l1.14.77a4.16,4.16,0,0,1-4,2.29C267.11,361.84,265.3,359.8,265.3,356.66Zm1.62-.92v.13h5.7v-.21a2.7,2.7,0,0,0-2.75-2.94A2.9,2.9,0,0,0,266.92,355.74Z"/><path class="cls-4" d="M285.1,361.61a1.62,1.62,0,0,1-1.77-1.61h-.1a2.86,2.86,0,0,1-3,1.84c-2.08,0-3.41-1.15-3.41-3s1.29-2.89,4.27-2.89h2.12v-1c0-1.44-.86-2.2-2.37-2.2a2.79,2.79,0,0,0-2.65,1.47l-1-.77a4,4,0,0,1,3.79-2c2.33,0,3.81,1.25,3.81,3.35v5.47h1.39v1.34Zm-1.87-2.89v-1.63h-2.12c-1.83,0-2.65.54-2.65,1.5v.4c0,1,.79,1.56,2.06,1.56C282.1,360.55,283.23,359.75,283.23,358.72Z"/><path class="cls-4" d="M289,361.61v-9.93h1.54v1.61h.08a2.81,2.81,0,0,1,2.83-1.84c2.08,0,3.44,1.38,3.44,3.79v6.37h-1.54v-6.1c0-1.81-.82-2.7-2.35-2.7-1.23,0-2.46.6-2.46,1.91v6.89Z"/><path class="cls-4" d="M300,359.9l1-.91a4.56,4.56,0,0,0,3.6,1.56c1.54,0,2.63-.54,2.63-1.71s-.84-1.31-1.75-1.44l-1.56-.24c-1.4-.21-3.41-.59-3.41-2.75,0-2,1.7-3,4-3a5.27,5.27,0,0,1,4,1.59l-1,.95a3.74,3.74,0,0,0-3.1-1.25c-1.56,0-2.42.55-2.42,1.58s.86,1.3,1.75,1.44l1.56.23c1.42.21,3.41.6,3.41,2.75,0,2-1.66,3.1-4.2,3.1A5.85,5.85,0,0,1,300,359.9Z"/><path class="cls-4" d="M328,361.61a2,2,0,0,1-2.19-2.27V353h-3.32v-1.31H325c.65,0,.9-.23.9-.91v-2.6h1.49v3.51h4.52V353h-4.52v7.31h4.52v1.31Z"/><path class="cls-4" d="M334.61,356.65c0-3.16,1.71-5.2,4.5-5.2s4.51,2,4.51,5.2-1.71,5.19-4.51,5.19S334.61,359.8,334.61,356.65Zm7.37.71v-1.43c0-2.14-1.15-3.16-2.87-3.16s-2.87,1-2.87,3.16v1.43c0,2.14,1.16,3.16,2.87,3.16S342,359.5,342,357.36Z"/><path class="cls-4" d="M345.47,351.68h1.37l1.13,8.59h.17l1.7-8.59h1.69l1.7,8.59h.17l1.14-8.59h1.33l-1.52,9.93h-2l-1.58-8.32h-.15L349,361.61h-2Z"/><path class="cls-4" d="M366,361.61A1.63,1.63,0,0,1,364.2,360h-.09a2.87,2.87,0,0,1-3,1.84c-2.08,0-3.41-1.15-3.41-3s1.3-2.89,4.28-2.89h2.12v-1a2.07,2.07,0,0,0-2.37-2.2,2.8,2.8,0,0,0-2.66,1.47l-1-.77a4,4,0,0,1,3.8-2c2.33,0,3.81,1.25,3.81,3.35v5.47H367v1.34Zm-1.87-2.89v-1.63H362c-1.83,0-2.66.54-2.66,1.5v.4c0,1,.79,1.56,2.06,1.56C363,360.55,364.11,359.75,364.11,358.72Z"/><path class="cls-4" d="M369.48,360.3h2.91V353h-2.91v-1.31h4.45v2.5h.1a3.18,3.18,0,0,1,3.35-2.5h1.38v1.54h-1.87a2.7,2.7,0,0,0-3,2.79v4.29h3.85v1.31h-8.3Z"/><path class="cls-4" d="M387.73,360h-.07a3.26,3.26,0,0,1-3.06,1.84c-2.43,0-3.89-1.94-3.89-5.19s1.46-5.2,3.89-5.2a3.26,3.26,0,0,1,3.06,1.84h.07v-5.93h1.55v14.25h-1.55Zm0-1.56v-3.59c0-1.32-1.17-2-2.54-2a2.71,2.71,0,0,0-2.83,3v1.69a2.71,2.71,0,0,0,2.83,3C386.56,360.48,387.73,359.76,387.73,358.44Z"/><path class="cls-4" d="M392.4,359.9l1-.91a4.56,4.56,0,0,0,3.6,1.56c1.54,0,2.63-.54,2.63-1.71s-.84-1.31-1.75-1.44l-1.56-.24c-1.4-.21-3.41-.59-3.41-2.75,0-2,1.7-3,4-3a5.27,5.27,0,0,1,4,1.59l-1,.95a3.74,3.74,0,0,0-3.1-1.25c-1.56,0-2.42.55-2.42,1.58s.86,1.3,1.75,1.44l1.56.23c1.42.21,3.41.6,3.41,2.75,0,2-1.66,3.1-4.2,3.1A5.85,5.85,0,0,1,392.4,359.9Z"/><path class="cls-4" d="M69.64,384.08h3.58v-7.32H69.64v-1.31h5.12v8.63h3.35v1.31H69.64Zm3.14-11.8V372c0-.56.33-1,1.21-1s1.22.42,1.22,1v.31c0,.55-.33,1-1.22,1S72.78,372.83,72.78,372.28Z"/><path class="cls-4" d="M81,385.39v-9.94h1.54v1.62h.08a2.82,2.82,0,0,1,2.83-1.85c2.08,0,3.45,1.39,3.45,3.8v6.37H87.4v-6.1c0-1.81-.83-2.7-2.35-2.7-1.23,0-2.47.6-2.47,1.91v6.89Z"/><path class="cls-4" d="M92.6,385.39v-9.94h1.54v1.62h.07A2.83,2.83,0,0,1,97,375.22c2.08,0,3.45,1.39,3.45,3.8v6.37H99v-6.1c0-1.81-.83-2.7-2.35-2.7-1.23,0-2.46.6-2.46,1.91v6.89Z"/><path class="cls-4" d="M103.55,380.44c0-3.18,1.87-5.22,4.57-5.22s4.41,2,4.41,4.86v.73h-7.36v.46a2.87,2.87,0,0,0,3,3,3,3,0,0,0,2.85-1.73l1.14.77a4.16,4.16,0,0,1-4,2.29C105.36,385.62,103.55,383.58,103.55,380.44Zm1.62-.92v.13h5.7v-.21a2.72,2.72,0,0,0-2.75-2.95A2.91,2.91,0,0,0,105.17,379.52Z"/><path class="cls-4" d="M115.3,384.08h2.91v-7.32H115.3v-1.31h4.45V378h.09a3.2,3.2,0,0,1,3.35-2.51h1.39V377h-1.87a2.7,2.7,0,0,0-3,2.79v4.29h3.85v1.31h-8.3Z"/><path class="cls-4" d="M139,384.08h3.59v-7.32H139v-1.31h5.13v8.63h3.35v1.31H139Zm3.14-11.8V372c0-.56.33-1,1.22-1s1.21.42,1.21,1v.31c0,.55-.33,1-1.21,1S142.1,372.83,142.1,372.28Z"/><path class="cls-4" d="M156.66,383.77h-.08a3.23,3.23,0,0,1-3.06,1.85c-2.42,0-3.89-1.94-3.89-5.2s1.47-5.2,3.89-5.2a3.25,3.25,0,0,1,3.06,1.85h.08v-5.93h1.54v14.25h-1.54Zm0-1.56v-3.58c0-1.33-1.17-2-2.54-2a2.7,2.7,0,0,0-2.83,3v1.69a2.7,2.7,0,0,0,2.83,3C155.49,384.25,156.66,383.54,156.66,382.21Z"/><path class="cls-4" d="M161.32,380.44c0-3.18,1.87-5.22,4.56-5.22s4.41,2,4.41,4.86v.73h-7.35v.46a2.87,2.87,0,0,0,3,3,3,3,0,0,0,2.85-1.73l1.14.77a4.17,4.17,0,0,1-4,2.29C163.13,385.62,161.32,383.58,161.32,380.44Zm1.62-.92v.13h5.7v-.21a2.72,2.72,0,0,0-2.76-2.95A2.9,2.9,0,0,0,162.94,379.52Z"/><path class="cls-4" d="M173.47,385.39v-9.94H175v1.62h.08a2.82,2.82,0,0,1,2.83-1.85c2.08,0,3.45,1.39,3.45,3.8v6.37h-1.54v-6.1c0-1.81-.83-2.7-2.35-2.7-1.24,0-2.47.6-2.47,1.91v6.89Z"/><path class="cls-4" d="M189.4,385.39a2,2,0,0,1-2.2-2.27v-6.36h-3.31v-1.31h2.46c.66,0,.91-.23.91-.9V372h1.48v3.5h4.53v1.31h-4.53v7.32h4.53v1.31Z"/><path class="cls-4" d="M196.73,384.08h3.59v-7.32h-3.59v-1.31h5.13v8.63h3.35v1.31h-8.48Zm3.14-11.8V372c0-.56.33-1,1.22-1s1.21.42,1.21,1v.31c0,.55-.33,1-1.21,1S199.87,372.83,199.87,372.28Z"/><path class="cls-4" d="M212.5,385.39a2,2,0,0,1-2.19-2.27v-6.36H207v-1.31h2.46c.66,0,.91-.23.91-.9V372h1.48v3.5h4.52v1.31h-4.52v7.32h4.52v1.31Z"/><path class="cls-4" d="M226.79,375.45h1.54l-4.93,12.12a2.31,2.31,0,0,1-2.54,1.67H219.4v-1.31h2.31l1.12-2.73-4-9.75h1.58l1.67,4.16,1.49,3.78h.07l1.49-3.78Z"/><path class="cls-4" d="M242.18,380.42c0-3.16,1.71-5.2,4.5-5.2s4.51,2,4.51,5.2-1.71,5.2-4.51,5.2S242.18,383.58,242.18,380.42Zm7.37.71v-1.42c0-2.14-1.15-3.16-2.87-3.16s-2.86,1-2.86,3.16v1.42c0,2.14,1.15,3.16,2.86,3.16S249.55,383.27,249.55,381.13Z"/><path class="cls-4" d="M253.94,384.08h2.91v-7.32h-2.91v-1.31h4.45V378h.1a3.19,3.19,0,0,1,3.35-2.51h1.39V377h-1.87a2.71,2.71,0,0,0-3,2.79v4.29h3.85v1.31h-8.3Z"/><path class="cls-4" d="M276.84,380.42c0-3.16,1.71-5.2,4.51-5.2s4.5,2,4.5,5.2-1.71,5.2-4.5,5.2S276.84,383.58,276.84,380.42Zm7.37.71v-1.42c0-2.14-1.15-3.16-2.86-3.16s-2.87,1-2.87,3.16v1.42c0,2.14,1.15,3.16,2.87,3.16S284.21,383.27,284.21,381.13Z"/><path class="cls-4" d="M295.25,383.77h-.08a2.82,2.82,0,0,1-2.83,1.85c-2.08,0-3.45-1.38-3.45-3.79v-6.38h1.54v6.11c0,1.81.83,2.69,2.35,2.69,1.24,0,2.47-.59,2.47-1.9v-6.9h1.54v9.94h-1.54Z"/><path class="cls-4" d="M304.93,385.39a2,2,0,0,1-2.19-2.27v-6.36h-3.31v-1.31h2.46c.66,0,.91-.23.91-.9V372h1.48v3.5h4.52v1.31h-4.52v7.32h4.52v1.31Z"/><path class="cls-4" d="M311.52,380.44c0-3.18,1.87-5.22,4.56-5.22s4.41,2,4.41,4.86v.73h-7.35v.46a2.87,2.87,0,0,0,3,3,3,3,0,0,0,2.85-1.73l1.14.77a4.17,4.17,0,0,1-4,2.29C313.33,385.62,311.52,383.58,311.52,380.44Zm1.62-.92v.13h5.7v-.21a2.72,2.72,0,0,0-2.76-2.95A2.9,2.9,0,0,0,313.14,379.52Z"/><path class="cls-4" d="M323.27,384.08h2.9v-7.32h-2.9v-1.31h4.44V378h.1a3.19,3.19,0,0,1,3.35-2.51h1.39V377h-1.87a2.71,2.71,0,0,0-3,2.79v4.29h3.86v1.31h-8.3Z"/><path class="cls-4" d="M345.47,375.45h1.37L348,384h.17l1.7-8.59h1.69l1.7,8.59h.17l1.14-8.59h1.33l-1.52,9.94h-2l-1.58-8.32h-.15L349,385.39h-2Z"/><path class="cls-4" d="M357.71,380.42c0-3.16,1.72-5.2,4.51-5.2s4.51,2,4.51,5.2-1.72,5.2-4.51,5.2S357.71,383.58,357.71,380.42Zm7.38.71v-1.42c0-2.14-1.15-3.16-2.87-3.16s-2.87,1-2.87,3.16v1.42c0,2.14,1.16,3.16,2.87,3.16S365.09,383.27,365.09,381.13Z"/><path class="cls-4" d="M369.48,384.08h2.91v-7.32h-2.91v-1.31h4.45V378h.1a3.19,3.19,0,0,1,3.35-2.51h1.38V377h-1.87a2.7,2.7,0,0,0-3,2.79v4.29h3.85v1.31h-8.3Z"/><path class="cls-4" d="M381.09,384.08h3.47V372.45h-3.47v-1.31h5v12.94h3.47v1.31h-8.48Z"/><path class="cls-4" d="M399.29,383.77h-.08a3.23,3.23,0,0,1-3.06,1.85c-2.43,0-3.89-1.94-3.89-5.2s1.46-5.2,3.89-5.2a3.25,3.25,0,0,1,3.06,1.85h.08v-5.93h1.54v14.25h-1.54Zm0-1.56v-3.58c0-1.33-1.18-2-2.54-2a2.7,2.7,0,0,0-2.83,3v1.69a2.7,2.7,0,0,0,2.83,3C398.11,384.25,399.29,383.54,399.29,382.21Z"/><path class="cls-5" d="M117.66,161.82c5.85-.3,11.66-.79,17.32-1.59.55.75,1.08,1.52,1.64,2.24-5.12.87-10.39,1.47-15.7,1.84,2.37,3.53,4.86,7,7.52,10.25A79.33,79.33,0,0,0,142,188a45.25,45.25,0,0,0,16.92,8.08,42.17,42.17,0,0,0,18.7-.2,68.14,68.14,0,0,0,17.66-7l1.31,2.35a70.7,70.7,0,0,1-18.38,7.3,44.76,44.76,0,0,1-19.88.19,47.86,47.86,0,0,1-17.94-8.55,81.56,81.56,0,0,1-14.05-13.86c-2.73-3.36-5.26-6.87-7.67-10.45-2.34,4.82-4.51,9.77-6.44,14.92-.7-.92-1.36-1.85-2-2.77C112.46,172.38,115,167,117.66,161.82Z"/><polyline class="cls-6" points="213.58 234.55 201.82 232.36 222.63 120.59 234.39 122.78"/><rect class="cls-7" x="244.02" y="127.94" width="25.69" height="113.69" transform="translate(38.17 -43.9) rotate(10.55)"/><path class="cls-4" d="M402.94,43.53v12h-1.62v-12h-4.48v-1.4h10.59v1.4Z"/><path class="cls-4" d="M409.79,41.32h1.55v5.93h.07a2.83,2.83,0,0,1,2.83-1.85c2.08,0,3.45,1.39,3.45,3.8v6.37h-1.54V49.46c0-1.8-.83-2.69-2.35-2.69-1.23,0-2.46.6-2.46,1.91v6.89h-1.55Z"/><path class="cls-4" d="M420.75,50.62c0-3.18,1.87-5.22,4.57-5.22s4.41,2,4.41,4.85V51h-7.36v.46a2.87,2.87,0,0,0,3,3,3,3,0,0,0,2.85-1.73l1.14.77a4.16,4.16,0,0,1-4,2.29C422.56,55.8,420.75,53.76,420.75,50.62Zm1.62-.92v.13h5.7v-.21a2.72,2.72,0,0,0-2.75-2.95A2.91,2.91,0,0,0,422.37,49.7Z"/><path class="cls-4" d="M444.4,42.13h3.75c3.28,0,4.89,2.31,4.89,6.72s-1.61,6.72-4.89,6.72H444.4Zm3.68,12c2.13,0,3.25-1.58,3.25-4.27V47.81c0-2.7-1.12-4.28-3.25-4.28H446V54.16Z"/><path class="cls-4" d="M455.2,48.85c0-4.39,1.43-7,4.7-7s4.7,2.56,4.7,7-1.43,6.95-4.7,6.95S455.2,53.24,455.2,48.85Zm7.68,1.1v-2.2c0-2.69-.84-4.45-3-4.45s-3,1.76-3,4.45V50c0,2.69.85,4.44,3,4.44S462.88,52.64,462.88,50Z"/><path class="cls-4" d="M472.26,43.53v12h-1.62v-12h-4.48v-1.4h10.59v1.4Z"/><path class="cls-4" d="M483.82,43.53v12H482.2v-12h-4.49v-1.4H488.3v1.4Z"/><path class="cls-4" d="M490.52,55.57V42.13h8.28v1.4h-6.67v4.53h6.44v1.4h-6.44v4.7h6.67v1.41Z"/><path class="cls-4" d="M502.17,42.13h3.75c3.28,0,4.89,2.31,4.89,6.72s-1.61,6.72-4.89,6.72h-3.75Zm3.68,12c2.13,0,3.25-1.58,3.25-4.27V47.81c0-2.7-1.12-4.28-3.25-4.28h-2.07V54.16Z"/><path class="cls-4" d="M525.27,45.63h1.55v1.62h.07A3.27,3.27,0,0,1,530,45.4c2.43,0,3.89,2,3.89,5.2s-1.46,5.2-3.89,5.2A3.27,3.27,0,0,1,526.89,54h-.07v5.47h-1.55Zm6.92,5.82v-1.7a2.7,2.7,0,0,0-2.83-3c-1.37,0-2.54.71-2.54,2v3.58c0,1.33,1.17,2,2.54,2A2.7,2.7,0,0,0,532.19,51.45Z"/><path class="cls-4" d="M544.53,55.57A1.62,1.62,0,0,1,542.76,54h-.1a2.84,2.84,0,0,1-3,1.85c-2.08,0-3.41-1.16-3.41-3s1.29-2.89,4.27-2.89h2.12v-1c0-1.45-.86-2.2-2.37-2.2a2.81,2.81,0,0,0-2.65,1.46l-1-.77a4,4,0,0,1,3.79-2c2.33,0,3.81,1.25,3.81,3.35v5.47h1.39v1.35Zm-1.87-2.89V51h-2.12c-1.82,0-2.65.54-2.65,1.51V53c0,1,.79,1.56,2.06,1.56C541.53,54.51,542.66,53.7,542.66,52.68Z"/><path class="cls-4" d="M548,54.26h2.91V46.94H548V45.63h4.45v2.51h.1a3.19,3.19,0,0,1,3.35-2.51h1.39v1.54h-1.87a2.71,2.71,0,0,0-3,2.8v4.29h3.85v1.31H548Z"/><path class="cls-4" d="M564.36,55.57a2,2,0,0,1-2.19-2.27V46.94h-3.31V45.63h2.46c.66,0,.91-.23.91-.9v-2.6h1.48v3.5h4.52v1.31h-4.52v7.32h4.52v1.31Z"/><path class="cls-4" d="M582.48,50.6c0-3.16,1.72-5.2,4.51-5.2s4.51,2,4.51,5.2-1.72,5.2-4.51,5.2S582.48,53.76,582.48,50.6Zm7.38.71V49.89c0-2.14-1.16-3.16-2.87-3.16s-2.87,1-2.87,3.16v1.42c0,2.14,1.16,3.16,2.87,3.16S589.86,53.45,589.86,51.31Z"/><path class="cls-4" d="M594.37,54.26h3.35V46.94h-3.55V45.63h3.55v-2a2,2,0,0,1,2.19-2.27h3.33v1.31h-4v3h4v1.31h-4v7.32h3.54v1.31h-8.43Z"/><path class="cls-4" d="M402.61,79.35a2,2,0,0,1-2.19-2.28V70.72h-3.31V69.41h2.46c.65,0,.91-.23.91-.91V65.9H402v3.51h4.52v1.31H402V78h4.52v1.31Z"/><path class="cls-4" d="M409.79,65.1h1.55V71h.07a2.82,2.82,0,0,1,2.83-1.85c2.08,0,3.45,1.38,3.45,3.79v6.38h-1.54V73.24c0-1.81-.83-2.69-2.35-2.69-1.23,0-2.46.59-2.46,1.9v6.9h-1.55Z"/><path class="cls-4" d="M420.75,74.4c0-3.18,1.87-5.22,4.57-5.22s4.41,2,4.41,4.85v.73h-7.36v.46a2.87,2.87,0,0,0,3,3,3,3,0,0,0,2.85-1.74l1.14.78a4.18,4.18,0,0,1-4,2.29C422.56,79.58,420.75,77.54,420.75,74.4Zm1.62-.93v.14h5.7V73.4a2.71,2.71,0,0,0-2.75-3A2.9,2.9,0,0,0,422.37,73.47Z"/><path class="cls-4" d="M443.86,77.63l1-.9a4.59,4.59,0,0,0,3.6,1.56c1.54,0,2.64-.54,2.64-1.72s-.85-1.31-1.75-1.44l-1.56-.23c-1.41-.21-3.41-.6-3.41-2.76,0-2,1.69-3,4-3a5.31,5.31,0,0,1,4.05,1.6l-1,.94a3.77,3.77,0,0,0-3.11-1.25c-1.55,0-2.42.56-2.42,1.58s.87,1.31,1.75,1.44l1.56.23c1.43.21,3.41.6,3.41,2.76,0,2-1.66,3.1-4.2,3.1A5.83,5.83,0,0,1,443.86,77.63Z"/><path class="cls-4" d="M460.38,79.35a2,2,0,0,1-2.19-2.28V70.72h-3.32V69.41h2.47c.65,0,.9-.23.9-.91V65.9h1.49v3.51h4.52v1.31h-4.52V78h4.52v1.31Z"/><path class="cls-4" d="M475.21,79.35a1.62,1.62,0,0,1-1.77-1.62h-.1a2.86,2.86,0,0,1-3,1.85c-2.08,0-3.41-1.16-3.41-3s1.29-2.89,4.27-2.89h2.12v-1c0-1.44-.87-2.19-2.37-2.19A2.81,2.81,0,0,0,468.31,72l-1-.77a4,4,0,0,1,3.79-2c2.33,0,3.81,1.25,3.81,3.35V78h1.39v1.35Zm-1.87-2.89V74.82h-2.12c-1.83,0-2.65.54-2.65,1.5v.41c0,1,.78,1.56,2.06,1.56C472.2,78.29,473.34,77.48,473.34,76.46Z"/><path class="cls-4" d="M478.85,74.38c0-3.16,1.67-5.2,4.48-5.2A3.68,3.68,0,0,1,487,71.47l-1.23.65a2.4,2.4,0,0,0-2.45-1.61,2.74,2.74,0,0,0-2.83,3v1.69a2.75,2.75,0,0,0,2.87,3,2.79,2.79,0,0,0,2.7-1.74l1.1.76a3.9,3.9,0,0,1-3.82,2.31C480.5,79.58,478.85,77.52,478.85,74.38Z"/><path class="cls-4" d="M490.81,65.1h1.54v9h.07l1.74-1.64,3.31-3h1.89l-4.13,3.89,4.61,6h-1.91l-3.87-5.17-1.71,1.57v3.6h-1.54Z"/><path class="cls-4" d="M513.18,77.63l1-.9a4.59,4.59,0,0,0,3.6,1.56c1.54,0,2.64-.54,2.64-1.72s-.85-1.31-1.75-1.44l-1.56-.23c-1.41-.21-3.41-.6-3.41-2.76,0-2,1.69-3,4-3a5.27,5.27,0,0,1,4,1.6l-1,.94a3.74,3.74,0,0,0-3.1-1.25c-1.56,0-2.43.56-2.43,1.58s.87,1.31,1.75,1.44l1.56.23c1.43.21,3.41.6,3.41,2.76,0,2-1.65,3.1-4.2,3.1A5.83,5.83,0,0,1,513.18,77.63Z"/><path class="cls-4" d="M525.33,65.1h1.54V71H527a2.8,2.8,0,0,1,2.83-1.85c2.08,0,3.45,1.38,3.45,3.79v6.38h-1.54V73.24c0-1.81-.83-2.69-2.35-2.69-1.23,0-2.47.59-2.47,1.9v6.9h-1.54Z"/><path class="cls-4" d="M536.27,74.38c0-3.16,1.71-5.2,4.51-5.2s4.5,2,4.5,5.2-1.71,5.2-4.5,5.2S536.27,77.54,536.27,74.38Zm7.38.71V73.66c0-2.13-1.16-3.15-2.87-3.15s-2.87,1-2.87,3.15v1.43c0,2.14,1.15,3.16,2.87,3.16S543.65,77.23,543.65,75.09Z"/><path class="cls-4" d="M547.13,69.41h1.37L549.63,78h.18l1.69-8.59h1.7L554.89,78h.17l1.14-8.59h1.33L556,79.35h-2L552.43,71h-.16l-1.62,8.32h-2Z"/><path class="cls-4" d="M559.4,77.63l1-.9a4.59,4.59,0,0,0,3.6,1.56c1.54,0,2.64-.54,2.64-1.72s-.85-1.31-1.76-1.44l-1.56-.23c-1.4-.21-3.41-.6-3.41-2.76,0-2,1.7-3,4-3a5.27,5.27,0,0,1,4,1.6l-1,.94a3.74,3.74,0,0,0-3.1-1.25c-1.56,0-2.42.56-2.42,1.58s.86,1.31,1.75,1.44l1.56.23c1.42.21,3.41.6,3.41,2.76,0,2-1.66,3.1-4.2,3.1A5.83,5.83,0,0,1,559.4,77.63Z"/><path class="cls-4" d="M587.47,79.35a2,2,0,0,1-2.19-2.28V70.72H582V69.41h2.47c.65,0,.9-.23.9-.91V65.9h1.49v3.51h4.52v1.31h-4.52V78h4.52v1.31Z"/><path class="cls-4" d="M594.65,65.1h1.54V71h.08a2.82,2.82,0,0,1,2.83-1.85c2.08,0,3.45,1.38,3.45,3.79v6.38H601V73.24c0-1.81-.83-2.69-2.35-2.69-1.23,0-2.47.59-2.47,1.9v6.9h-1.54Z"/><path class="cls-4" d="M605.61,74.4c0-3.18,1.87-5.22,4.57-5.22s4.4,2,4.4,4.85v.73h-7.35v.46a2.87,2.87,0,0,0,3,3,3,3,0,0,0,2.85-1.74l1.14.78a4.19,4.19,0,0,1-4,2.29C607.42,79.58,605.61,77.54,605.61,74.4Zm1.62-.93v.14h5.7V73.4a2.71,2.71,0,0,0-2.75-3A2.9,2.9,0,0,0,607.23,73.47Z"/><path class="cls-4" d="M397.39,103.12V93.19h1.43v1.15h.08A1.89,1.89,0,0,1,400.8,93a1.64,1.64,0,0,1,1.81,1.57h.06A2.19,2.19,0,0,1,404.83,93c1.61,0,2,1.18,2,3.28v6.89h-1.43V96.48c0-1.69-.29-2.25-1.21-2.25s-1.39.54-1.39,1.6v7.29h-1.42V96.48c0-1.69-.29-2.25-1.2-2.25s-1.4.54-1.4,1.6v7.29Z"/><path class="cls-4" d="M417.44,103.12a1.62,1.62,0,0,1-1.77-1.61h-.1a2.86,2.86,0,0,1-3,1.84c-2.08,0-3.41-1.15-3.41-3s1.29-2.89,4.27-2.89h2.12v-1c0-1.44-.86-2.2-2.37-2.2a2.79,2.79,0,0,0-2.65,1.47l-1-.77a4,4,0,0,1,3.79-2c2.33,0,3.81,1.26,3.81,3.36v5.47h1.39v1.34Zm-1.87-2.89V98.6h-2.12c-1.83,0-2.65.54-2.65,1.5v.4c0,1,.79,1.56,2.06,1.56C414.44,102.06,415.57,101.25,415.57,100.23Z"/><path class="cls-4" d="M420.64,103.12l3.69-5-3.6-4.89h1.85l1.5,2.1,1.2,1.65h.07l1.16-1.65,1.48-2.1h1.77l-3.64,4.87,3.74,5.06H428l-1.67-2.33-1.14-1.58h-.08L424,100.79l-1.62,2.33Z"/><path class="cls-4" d="M433.06,101.81h3.58V94.5h-3.58V93.19h5.12v8.62h3.35v1.31h-8.47ZM436.19,90V89.7c0-.56.33-1,1.22-1s1.21.42,1.21,1V90c0,.56-.33,1-1.21,1S436.19,90.57,436.19,90Z"/><path class="cls-4" d="M443.61,103.12V93.19H445v1.15h.08A1.91,1.91,0,0,1,447,93a1.66,1.66,0,0,1,1.81,1.57h.06A2.17,2.17,0,0,1,451,93c1.62,0,2,1.18,2,3.28v6.89h-1.42V96.48c0-1.69-.29-2.25-1.22-2.25s-1.38.54-1.38,1.6v7.29h-1.43V96.48c0-1.69-.29-2.25-1.19-2.25s-1.41.54-1.41,1.6v7.29Z"/><path class="cls-4" d="M462.25,101.51h-.08a2.81,2.81,0,0,1-2.83,1.84c-2.08,0-3.45-1.38-3.45-3.79V93.19h1.55v6.1c0,1.81.82,2.7,2.34,2.7,1.24,0,2.47-.6,2.47-1.91V93.19h1.54v9.93h-1.54Z"/><path class="cls-4" d="M466.72,103.12V93.19h1.42v1.15h.08a1.91,1.91,0,0,1,1.9-1.39,1.66,1.66,0,0,1,1.82,1.57H472A2.19,2.19,0,0,1,474.15,93c1.62,0,2,1.18,2,3.28v6.89h-1.42V96.48c0-1.69-.29-2.25-1.22-2.25s-1.38.54-1.38,1.6v7.29h-1.43V96.48c0-1.69-.29-2.25-1.19-2.25s-1.41.54-1.41,1.6v7.29Z"/><path class="cls-4" d="M490.61,93.19h1.54V94.8h.08A3.27,3.27,0,0,1,495.29,93c2.43,0,3.89,2,3.89,5.21s-1.46,5.19-3.89,5.19a3.26,3.26,0,0,1-3.06-1.84h-.08V107h-1.54ZM497.53,99V97.31a2.71,2.71,0,0,0-2.83-3c-1.37,0-2.55.72-2.55,2V100c0,1.32,1.18,2,2.55,2A2.71,2.71,0,0,0,497.53,99Z"/><path class="cls-4" d="M501.61,98.16c0-3.16,1.71-5.21,4.5-5.21s4.51,2,4.51,5.21-1.71,5.19-4.51,5.19S501.61,101.31,501.61,98.16Zm7.37.71V97.44c0-2.14-1.15-3.16-2.87-3.16s-2.86,1-2.86,3.16v1.43c0,2.13,1.15,3.16,2.86,3.16S509,101,509,98.87Z"/><path class="cls-4" d="M513.18,101.41l1-.91a4.56,4.56,0,0,0,3.6,1.56c1.54,0,2.64-.54,2.64-1.71s-.85-1.31-1.75-1.44l-1.56-.24c-1.41-.21-3.41-.59-3.41-2.75,0-2,1.69-3,4-3a5.27,5.27,0,0,1,4,1.6l-1,1a3.74,3.74,0,0,0-3.1-1.25c-1.56,0-2.43.55-2.43,1.58s.87,1.3,1.75,1.44l1.56.23c1.43.21,3.41.6,3.41,2.75,0,2-1.65,3.1-4.2,3.1A5.85,5.85,0,0,1,513.18,101.41Z"/><path class="cls-4" d="M524.73,101.41l1-.91a4.56,4.56,0,0,0,3.6,1.56c1.54,0,2.63-.54,2.63-1.71s-.84-1.31-1.75-1.44l-1.56-.24c-1.4-.21-3.41-.59-3.41-2.75,0-2,1.7-3,4-3a5.27,5.27,0,0,1,4,1.6l-1,1a3.74,3.74,0,0,0-3.1-1.25c-1.56,0-2.42.55-2.42,1.58s.86,1.3,1.75,1.44l1.56.23c1.42.21,3.41.6,3.41,2.75,0,2-1.66,3.1-4.2,3.1A5.89,5.89,0,0,1,524.73,101.41Z"/><path class="cls-4" d="M537,101.81h3.58V94.5H537V93.19h5.12v8.62h3.35v1.31H537ZM540.18,90V89.7c0-.56.33-1,1.21-1s1.22.42,1.22,1V90c0,.56-.33,1-1.22,1S540.18,90.57,540.18,90Z"/><path class="cls-4" d="M548.38,88.87h1.54V94.8H550A3.25,3.25,0,0,1,553.06,93c2.43,0,3.89,2,3.89,5.21s-1.46,5.19-3.89,5.19a3.24,3.24,0,0,1-3.06-1.84h-.08v1.61h-1.54ZM555.29,99V97.31a2.7,2.7,0,0,0-2.83-3c-1.36,0-2.54.72-2.54,2V100c0,1.32,1.18,2,2.54,2A2.7,2.7,0,0,0,555.29,99Z"/><path class="cls-4" d="M559.65,101.81h3.46V90.18h-3.46V88.87h5v12.94h3.47v1.31h-8.47Z"/><path class="cls-4" d="M571,98.17C571,95,572.82,93,575.51,93s4.41,2,4.41,4.86v.73h-7.35V99a2.88,2.88,0,0,0,3,3,3,3,0,0,0,2.85-1.74l1.14.77a4.17,4.17,0,0,1-4,2.29C572.76,103.35,571,101.31,571,98.17Zm1.62-.92v.13h5.7v-.21a2.71,2.71,0,0,0-2.76-2.94A2.9,2.9,0,0,0,572.57,97.25Z"/><path class="cls-4" d="M402.61,126.9a2,2,0,0,1-2.19-2.27v-6.36h-3.31V117h2.46c.65,0,.91-.23.91-.9v-2.6H402V117h4.52v1.31H402v7.32h4.52v1.31Z"/><path class="cls-4" d="M409.18,121.93c0-3.16,1.71-5.2,4.51-5.2s4.5,2,4.5,5.2-1.71,5.2-4.5,5.2S409.18,125.09,409.18,121.93Zm7.37.71v-1.42c0-2.14-1.15-3.16-2.86-3.16s-2.87,1-2.87,3.16v1.42c0,2.14,1.15,3.16,2.87,3.16S416.55,124.78,416.55,122.64Z"/><path class="cls-4" d="M425.72,126.9a2,2,0,0,1-2.19-2.27v-6.36h-3.32V117h2.47c.65,0,.9-.23.9-.9v-2.6h1.49V117h4.52v1.31h-4.52v7.32h4.52v1.31Z"/><path class="cls-4" d="M440.55,126.9a1.61,1.61,0,0,1-1.77-1.62h-.1a2.86,2.86,0,0,1-3,1.85c-2.08,0-3.4-1.16-3.4-3s1.29-2.89,4.27-2.89h2.12v-1c0-1.45-.87-2.2-2.37-2.2a2.81,2.81,0,0,0-2.66,1.46l-1-.77a4,4,0,0,1,3.8-2c2.33,0,3.81,1.25,3.81,3.35v5.47h1.39v1.35ZM438.68,124v-1.64h-2.12c-1.83,0-2.66.54-2.66,1.51v.4c0,1,.79,1.56,2.06,1.56C437.54,125.84,438.68,125,438.68,124Z"/><path class="cls-4" d="M444.11,125.59h3.47V114h-3.47v-1.31h5v12.94h3.46v1.31h-8.47Z"/><path class="cls-4" d="M475.21,126.9a1.61,1.61,0,0,1-1.77-1.62h-.1a2.85,2.85,0,0,1-3,1.85c-2.08,0-3.41-1.16-3.41-3s1.29-2.89,4.27-2.89h2.12v-1c0-1.45-.87-2.2-2.37-2.2a2.81,2.81,0,0,0-2.66,1.46l-1-.77a4,4,0,0,1,3.79-2c2.33,0,3.81,1.25,3.81,3.35v5.47h1.39v1.35ZM473.34,124v-1.64h-2.12c-1.83,0-2.65.54-2.65,1.51v.4c0,1,.78,1.56,2.06,1.56C472.2,125.84,473.34,125,473.34,124Z"/><path class="cls-4" d="M479.12,126.9V117h1.54v1.62h.07a2.84,2.84,0,0,1,2.84-1.85c2.08,0,3.44,1.39,3.44,3.8v6.37h-1.54v-6.11c0-1.8-.83-2.69-2.35-2.69-1.23,0-2.46.6-2.46,1.91v6.89Z"/><path class="cls-4" d="M490.07,125.19l1-.91a4.62,4.62,0,0,0,3.6,1.56c1.55,0,2.64-.54,2.64-1.71s-.84-1.31-1.75-1.45l-1.56-.23c-1.4-.21-3.41-.6-3.41-2.75,0-2,1.7-3,4-3a5.27,5.27,0,0,1,4,1.6l-1,.94a3.77,3.77,0,0,0-3.1-1.25c-1.56,0-2.43.56-2.43,1.58s.87,1.31,1.76,1.44l1.56.24c1.42.21,3.4.59,3.4,2.75,0,2-1.65,3.1-4.19,3.1A5.88,5.88,0,0,1,490.07,125.19Z"/><path class="cls-4" d="M500.92,117h1.36l1.14,8.59h.17l1.7-8.59H507l1.7,8.59h.17L510,117h1.33l-1.52,9.94h-2l-1.58-8.32h-.15l-1.62,8.32h-2Z"/><path class="cls-4" d="M513.18,122c0-3.18,1.87-5.22,4.57-5.22s4.4,2,4.4,4.85v.74H514.8v.46a2.87,2.87,0,0,0,3,3,3,3,0,0,0,2.85-1.73l1.14.77a4.16,4.16,0,0,1-4,2.29C515,127.13,513.18,125.09,513.18,122Zm1.62-.92v.13h5.7V121a2.72,2.72,0,0,0-2.75-3A2.91,2.91,0,0,0,514.8,121Z"/><path class="cls-4" d="M524.93,125.59h2.91v-7.32h-2.91V117h4.45v2.51h.09a3.2,3.2,0,0,1,3.35-2.51h1.39v1.54h-1.87a2.71,2.71,0,0,0-3,2.8v4.29h3.85v1.31h-8.3Z"/><path class="cls-4" d="M536.29,125.19l1-.91a4.59,4.59,0,0,0,3.6,1.56c1.54,0,2.64-.54,2.64-1.71s-.85-1.31-1.75-1.45l-1.56-.23c-1.41-.21-3.41-.6-3.41-2.75,0-2,1.69-3,4-3a5.31,5.31,0,0,1,4,1.6l-1,.94a3.8,3.8,0,0,0-3.11-1.25c-1.56,0-2.42.56-2.42,1.58s.86,1.31,1.75,1.44l1.56.24c1.43.21,3.41.59,3.41,2.75,0,2-1.66,3.1-4.2,3.1A5.85,5.85,0,0,1,536.29,125.19Z"/><path class="cls-4" d="M413.62,221.52v12H412v-12h-4.48v-1.41h10.59v1.41Z"/><path class="cls-4" d="M420.48,219.3H422v5.93h.07a2.83,2.83,0,0,1,2.83-1.85c2.08,0,3.45,1.39,3.45,3.8v6.37h-1.54v-6.1c0-1.81-.83-2.7-2.35-2.7-1.23,0-2.46.6-2.46,1.91v6.89h-1.54Z"/><path class="cls-4" d="M431.43,228.6c0-3.17,1.87-5.22,4.57-5.22s4.41,2.05,4.41,4.86V229h-7.36v.46a2.88,2.88,0,0,0,3,3,3,3,0,0,0,2.85-1.73l1.14.77a4.16,4.16,0,0,1-4,2.29C433.24,233.78,431.43,231.74,431.43,228.6Zm1.62-.92v.13h5.7v-.21a2.71,2.71,0,0,0-2.75-2.94A2.9,2.9,0,0,0,433.05,227.68Z"/><path class="cls-4" d="M455,233.55V220.11h8.48v1.41H456.6V226h6.28v1.41H456.6v6.1Z"/><path class="cls-4" d="M466.42,233.55v-1.29h3.35V221.4h-3.35v-1.29h8.32v1.29h-3.35v10.86h3.35v1.29Z"/><path class="cls-4" d="M478.67,233.55V220.11h1.62v12h6.37v1.4Z"/><path class="cls-4" d="M490.22,233.55V220.11h1.62v12h6.37v1.4Z"/><path class="cls-4" d="M501.2,233.55V220.11h8.28v1.41h-6.66V226h6.43v1.41h-6.43v4.7h6.66v1.4Z"/><path class="cls-4" d="M512.85,220.11h3.75c3.28,0,4.89,2.31,4.89,6.72s-1.61,6.72-4.89,6.72h-3.75Zm3.68,12c2.13,0,3.25-1.58,3.25-4.28v-2.08c0-2.69-1.12-4.27-3.25-4.27h-2.06v10.63Z"/><path class="cls-4" d="M535.42,231.84l1-.91a4.59,4.59,0,0,0,3.6,1.56c1.54,0,2.64-.54,2.64-1.71s-.85-1.31-1.76-1.45l-1.56-.23c-1.4-.21-3.4-.59-3.4-2.75,0-2,1.69-3,4-3a5.27,5.27,0,0,1,4,1.6l-1,1a3.73,3.73,0,0,0-3.1-1.26c-1.56,0-2.42.56-2.42,1.58s.86,1.31,1.75,1.45l1.56.23c1.42.21,3.41.6,3.41,2.75,0,2-1.66,3.1-4.2,3.1A5.85,5.85,0,0,1,535.42,231.84Z"/><path class="cls-4" d="M551.94,233.55a2,2,0,0,1-2.2-2.27v-6.36h-3.31v-1.3h2.47c.65,0,.9-.24.9-.91v-2.6h1.48v3.51h4.53v1.3h-4.53v7.32h4.53v1.31Z"/><path class="cls-4" d="M566.77,233.55a1.63,1.63,0,0,1-1.78-1.62h-.09a2.87,2.87,0,0,1-3,1.85c-2.08,0-3.41-1.15-3.41-3s1.3-2.89,4.28-2.89h2.12v-1c0-1.45-.87-2.2-2.37-2.2a2.8,2.8,0,0,0-2.66,1.47l-1-.77a4,4,0,0,1,3.8-2c2.33,0,3.81,1.26,3.81,3.36v5.46h1.38v1.35Zm-1.87-2.89V229h-2.12c-1.83,0-2.66.54-2.66,1.5v.4c0,1,.79,1.56,2.06,1.56C563.76,232.49,564.9,231.68,564.9,230.66Z"/><path class="cls-4" d="M570.4,228.58c0-3.15,1.68-5.2,4.49-5.2a3.69,3.69,0,0,1,3.68,2.3l-1.23.65a2.42,2.42,0,0,0-2.45-1.62,2.74,2.74,0,0,0-2.83,3v1.69a2.74,2.74,0,0,0,2.87,3,2.78,2.78,0,0,0,2.7-1.73l1.09.75a3.86,3.86,0,0,1-3.81,2.31C572.06,233.78,570.4,231.72,570.4,228.58Z"/><path class="cls-4" d="M582.36,219.3h1.54v9H584l1.73-1.63,3.32-3h1.88l-4.12,3.88,4.61,6.05h-1.91l-3.87-5.16L583.9,230v3.6h-1.54Z"/><path class="cls-4" d="M409.08,256h3.58V248.7h-3.58v-1.31h5.12V256h3.35v1.31h-8.47Zm3.14-11.81v-.3c0-.56.32-1,1.21-1s1.21.43,1.21,1v.3c0,.56-.32,1-1.21,1S412.22,244.77,412.22,244.21Z"/><path class="cls-4" d="M419.88,255.61l1-.9a4.59,4.59,0,0,0,3.6,1.56c1.54,0,2.64-.54,2.64-1.72s-.85-1.3-1.75-1.44l-1.56-.23c-1.41-.21-3.41-.6-3.41-2.75,0-2,1.69-3,4-3a5.31,5.31,0,0,1,4.05,1.6l-1,.94a3.76,3.76,0,0,0-3.1-1.25c-1.56,0-2.43.56-2.43,1.58s.87,1.31,1.75,1.44l1.56.23c1.43.22,3.41.6,3.41,2.76,0,2-1.66,3.1-4.2,3.1A5.83,5.83,0,0,1,419.88,255.61Z"/><path class="cls-4" d="M450.69,247.39h1.54L447.3,259.5a2.31,2.31,0,0,1-2.54,1.68H443.3v-1.31h2.31l1.11-2.73-4-9.75h1.58l1.67,4.16,1.48,3.78h.08l1.48-3.78Z"/><path class="cls-4" d="M454.52,252.36c0-3.16,1.71-5.2,4.51-5.2s4.5,2,4.5,5.2-1.71,5.2-4.5,5.2S454.52,255.52,454.52,252.36Zm7.38.71v-1.42c0-2.14-1.16-3.16-2.87-3.16s-2.87,1-2.87,3.16v1.42c0,2.14,1.15,3.16,2.87,3.16S461.9,255.21,461.9,253.07Z"/><path class="cls-4" d="M472.93,255.71h-.08a2.82,2.82,0,0,1-2.83,1.85c-2.08,0-3.44-1.39-3.44-3.79v-6.38h1.54v6.11c0,1.81.82,2.69,2.35,2.69,1.23,0,2.46-.6,2.46-1.9v-6.9h1.54v9.94h-1.54Z"/><path class="cls-4" d="M477.84,256h2.91V248.7h-2.91v-1.31h4.45v2.51h.1a3.19,3.19,0,0,1,3.35-2.51h1.38v1.54h-1.87a2.7,2.7,0,0,0-3,2.79V256h3.85v1.31h-8.3Z"/><path class="cls-4" d="M509,257.33a1.62,1.62,0,0,1-1.77-1.62h-.1a2.85,2.85,0,0,1-3,1.85c-2.08,0-3.41-1.16-3.41-3s1.29-2.89,4.27-2.89h2.12v-1c0-1.44-.87-2.19-2.37-2.19a2.81,2.81,0,0,0-2.66,1.46l-1-.77a4,4,0,0,1,3.8-2c2.33,0,3.81,1.25,3.81,3.35V256h1.39v1.35Zm-1.87-2.89V252.8H505c-1.83,0-2.66.54-2.66,1.5v.41c0,1,.79,1.56,2.06,1.56C506,256.27,507.13,255.46,507.13,254.44Z"/><path class="cls-4" d="M512.91,257.33v-9.94h1.54V249h.07a2.83,2.83,0,0,1,2.83-1.85c2.08,0,3.45,1.39,3.45,3.79v6.38h-1.54v-6.11c0-1.81-.83-2.69-2.35-2.69-1.23,0-2.46.59-2.46,1.9v6.9Z"/><path class="cls-4" d="M523.86,255.61l1-.9a4.61,4.61,0,0,0,3.6,1.56c1.54,0,2.64-.54,2.64-1.72s-.85-1.3-1.75-1.44l-1.56-.23c-1.41-.21-3.41-.6-3.41-2.75,0-2,1.7-3,4-3a5.27,5.27,0,0,1,4,1.6l-1,.94a3.74,3.74,0,0,0-3.1-1.25c-1.56,0-2.43.56-2.43,1.58s.87,1.31,1.75,1.44l1.56.23c1.43.22,3.41.6,3.41,2.76,0,2-1.65,3.1-4.19,3.1A5.85,5.85,0,0,1,523.86,255.61Z"/><path class="cls-4" d="M534.7,247.39h1.37l1.14,8.59h.17l1.7-8.59h1.69l1.69,8.59h.18l1.13-8.59h1.33l-1.52,9.94h-2L540,249h-.15l-1.62,8.32h-2Z"/><path class="cls-4" d="M547,252.38c0-3.18,1.87-5.22,4.56-5.22s4.41,2,4.41,4.85v.74h-7.35v.46a2.87,2.87,0,0,0,3,3,3,3,0,0,0,2.85-1.73l1.14.77a4.17,4.17,0,0,1-4,2.29C548.78,257.56,547,255.52,547,252.38Zm1.62-.93v.14h5.7v-.21a2.72,2.72,0,0,0-2.76-2.95A2.9,2.9,0,0,0,548.59,251.45Z"/><path class="cls-4" d="M558.72,256h2.9V248.7h-2.9v-1.31h4.44v2.51h.1a3.2,3.2,0,0,1,3.35-2.51H568v1.54h-1.87a2.71,2.71,0,0,0-3,2.79V256H567v1.31h-8.3Z"/><polygon class="cls-5" points="377.1 92.89 368.3 108.12 365.19 108.12 373.21 94.23 360.36 94.23 339.5 94.23 339.5 91.54 360.36 91.54 373.21 91.54 365.19 77.66 368.3 77.66 377.1 92.89"/><polyline class="cls-6" points="281.5 247.19 292.01 249.15 331.31 38.15 320.79 36.19"/><line class="cls-6" x1="227.83" y1="261.98" x2="233.01" y2="307.37"/><line class="cls-6" x1="254.57" y1="267.8" x2="233.01" y2="307.37"/><path class="cls-8" d="M228.26,273.15a27,27,0,0,1,4.24-.33,27.41,27.41,0,0,1,16,5.13"/><path class="cls-5" d="M382.81,237.75c-2.45,5.32-5.11,10.62-7.83,15.86l-3.23.19q3.78-7.16,7.29-14.38c-4.29.33-8.58.56-12.87.74-11,.46-22.05.51-33.07.07a298.94,298.94,0,0,1-33-3c-10.91-1.71-21.81-3.92-32.23-8a63.43,63.43,0,0,1-7.63-3.54,32.67,32.67,0,0,1-7-5,16,16,0,0,1-2.8-3.48,10.49,10.49,0,0,1-1.45-4.45,9.7,9.7,0,0,1,.82-4.66,14.87,14.87,0,0,1,2.48-3.79l2,1.79c-1.67,1.89-2.84,4.16-2.62,6.44a10.11,10.11,0,0,0,3.44,6.22,29.61,29.61,0,0,0,6.41,4.56,60,60,0,0,0,7.31,3.4c10.1,3.93,20.88,6.13,31.65,7.82a297.25,297.25,0,0,0,32.67,3c10.94.44,21.9.38,32.85-.07,4.26-.18,8.53-.41,12.78-.73-3-4.42-5.9-8.87-8.71-13.36l3-.17C376.24,228.11,379.43,233,382.81,237.75Z"/></svg>