<svg xmlns="http://www.w3.org/2000/svg" viewBox="0 0 8.12 16.77">
  <defs>
    <style>
      .cls-1 {
        fill: #fff;
      }
    </style>
  </defs>
  <g id="Layer_2" data-name="Layer 2">
    <g id="Layer_1-2" data-name="Layer 1">
      <path class="cls-1" d="M6,16.29a17.18,17.18,0,0,1-5.36.43c-.23-.33-.43-.67-.62-1a18.31,18.31,0,0,0,4.91,0,15.12,15.12,0,0,1-2-3.29A21.17,21.17,0,0,1,1.46,0l.78.14A20.33,20.33,0,0,0,3.6,12.05a14,14,0,0,0,1.93,3.13,15.89,15.89,0,0,1,2.25-3.92,5.55,5.55,0,0,0,.34.54A14.68,14.68,0,0,0,6,16.29Z"/>
    </g>
  </g>
</svg>
