<svg id="Layer_1" data-name="Layer 1" xmlns="http://www.w3.org/2000/svg" viewBox="0 0 600.46 317.27"><defs><style>.cls-1,.cls-3,.cls-4,.cls-5,.cls-8{fill:none;}.cls-1,.cls-8{stroke:#dcdbdb;}.cls-1{stroke-width:1.08px;}.cls-2{fill:#6fa7d4;}.cls-3,.cls-4,.cls-5{stroke:#6fa7d4;}.cls-3{stroke-width:0.72px;}.cls-4{stroke-width:0.72px;}.cls-5{stroke-width:1.79px;}.cls-6{fill:#fbcb9b;}.cls-7{fill:#fff;}.cls-8{stroke-width:1.08px;}</style></defs><path class="cls-1" d="M198.25,187.67a43.55,43.55,0,0,1,16.68-2.57,43.38,43.38,0,0,1,16.39,4,43.27,43.27,0,0,1,13.6,10,42.59,42.59,0,0,1,5.09,6.78,44.09,44.09,0,0,1,3.67,7.65,43.28,43.28,0,0,1,2.56,16.67,43.38,43.38,0,0,1-4,16.39,43.33,43.33,0,0,1-10,13.61,43.75,43.75,0,0,1-6.79,5.09,42.9,42.9,0,0,1-7.64,3.66,43.28,43.28,0,0,1-33.07-1.44,43.27,43.27,0,0,1-13.6-10,42.59,42.59,0,0,1-5.09-6.78,44.34,44.34,0,0,1-3.67-7.64,43.37,43.37,0,0,1-2.56-16.68,43.38,43.38,0,0,1,4-16.39,43.17,43.17,0,0,1,16.76-18.69A42.27,42.27,0,0,1,198.25,187.67Z"/><path class="cls-2" d="M168.91,244l3.71-1.35,1.35,3.71-.67.24-1.23-3.37.33-.12.13.33-3.37,1.23Zm-16.86,6.13,3.37-1.22.25.67-3.38,1.23Zm-16.86,6.14,3.37-1.23.25.68-3.38,1.22Zm-16.86,6.14,3.37-1.23.24.67-3.37,1.23Zm-16.86,6.13,3.37-1.22.24.67-3.37,1.23ZM84.6,274.67,88,273.44l.24.68-3.37,1.23Zm-12.47,8.74L70.9,280l.67-.24,1.23,3.37Zm13,3.28-3.37,1.23-.25-.68L84.91,286ZM102,280.55l-3.37,1.23-.25-.67,3.38-1.23Zm16.86-6.13-3.37,1.22-.25-.67,3.38-1.23Zm16.86-6.14-3.37,1.23-.24-.68,3.37-1.23Zm16.86-6.14-3.37,1.23-.24-.68,3.37-1.22ZM169.47,256l-3.38,1.23-.24-.67,3.37-1.23Z"/><path class="cls-2" d="M166.22,229.58l3.95-.14.14,3.95-.72,0-.13-3.58.36,0,0,.36-3.59.13Zm-17.93.63,3.59-.13,0,.72-3.58.12Zm-17.93.62,3.59-.12,0,.72-3.59.12Zm-17.93.63,3.58-.13,0,.72-3.59.13Zm-17.94.63,3.59-.13,0,.72-3.59.12Zm-17.93.62,3.59-.12,0,.71-3.58.13ZM62,237.17l-.13-3.59.72,0,.12,3.59Zm11.38,7.14-3.59.13,0-.72,3.58-.12Zm17.93-.62-3.59.12,0-.71,3.58-.13Zm17.93-.63-3.58.13,0-.72,3.59-.13Zm17.93-.62-3.58.12,0-.72,3.59-.12Zm17.94-.63-3.59.12,0-.71,3.59-.13Zm17.93-.63-3.59.13,0-.72,3.58-.12Z"/><path class="cls-2" d="M168.12,215.05l3.8,1.09-1.09,3.79-.69-.19,1-3.45.34.1-.1.34-3.45-1Zm-17.25-4.94,3.45,1-.19.69-3.45-1Zm-17.24-5,3.44,1-.19.69-3.45-1Zm-17.25-4.95,3.45,1-.2.69-3.45-1Zm-17.25-4.94,3.45,1-.2.69-3.45-1Zm-17.25-5,3.45,1-.2.69-3.45-1Zm-15.23-.26,1-3.45.69.2-1,3.45Zm8.62,10.31-3.45-1,.19-.69,3.45,1Zm17.24,4.95-3.45-1,.2-.69,3.45,1Zm17.25,4.94-3.45-1,.2-.68,3.45,1Zm17.25,5-3.45-1,.2-.69,3.45,1Zm17.25,4.95-3.45-1,.2-.69,3.45,1Zm17.25,4.94-3.45-1,.19-.69,3.45,1Z"/><path class="cls-2" d="M174.42,201.82l3.27,2.21-2.21,3.27-.59-.4,2-3,.3.2-.2.3-3-2Zm-14.88-10,3,2-.4.6-3-2Zm-14.88-10,3,2-.4.59-3-2Zm-14.87-10,3,2-.4.59-3-2Zm-14.88-10,3,2-.4.6-3-2Zm-14.87-10,3,2-.4.59-3-2Zm-14.41-5,2-3,.59.4-2,3Zm5,12.47-3-2,.4-.6,3,2Zm14.88,10-3-2,.4-.59,3,2Zm14.87,10-3-2,.4-.6,3,2Zm14.88,10-3-2,.4-.6,3,2Zm14.87,10-3-2,.4-.59,3,2Zm14.88,10-3-2,.4-.6,3,2Z"/><path class="cls-2" d="M184.49,191.18l2.43,3.11-3.11,2.43-.44-.56L186.2,194l.22.28-.29.22-2.21-2.83ZM173.44,177l2.21,2.83-.56.44-2.21-2.83Zm-11-14.14,2.21,2.83-.57.44-2.21-2.83Zm-11.05-14.14,2.21,2.83L153,152l-2.21-2.83Zm-11-14.14,2.21,2.83-.56.44-2.21-2.83Zm-11-14.14,2.2,2.83-.56.44-2.21-2.83Zm-12.17-9.16,2.82-2.21.45.56-2.83,2.21Zm.91,13.41-2.21-2.83.56-.44,2.21,2.82Zm11,14.13L126.83,136l.57-.45,2.21,2.83ZM140.09,153l-2.21-2.82.57-.45,2.21,2.83Zm11,14.14-2.21-2.82.56-.45,2.21,2.83Zm11,14.14-2.2-2.82.56-.45,2.21,2.83Zm11,14.14L171,192.59l.57-.44L173.8,195Z"/><path class="cls-2" d="M197.36,184.18l1.35,3.7L195,189.23l-.24-.67,3.37-1.23.12.34-.34.12-1.22-3.37Zm-6.14-16.87,1.23,3.38-.67.24-1.23-3.37Zm-6.13-16.86,1.22,3.37-.67.25-1.23-3.37ZM179,133.59l1.23,3.37-.68.25-1.23-3.37Zm-6.14-16.86L174,120.1l-.67.25L172.14,117Zm-6.13-16.86,1.22,3.37-.67.25L166,100.11Zm-8.75-12.48,3.38-1.22.24.67-3.37,1.23Zm-3.27,13-1.23-3.37.67-.24,1.23,3.37Zm6.13,16.87-1.22-3.38.67-.24,1.23,3.37Zm6.14,16.86-1.23-3.38.68-.24,1.23,3.37ZM173.07,151l-1.23-3.37.67-.25,1.23,3.37Zm6.13,16.86L178,164.5l.67-.25,1.23,3.37Zm6.14,16.86-1.23-3.37.68-.25,1.23,3.38Z"/><path class="cls-2" d="M211.76,181.49l.14,3.94-3.94.14,0-.71,3.59-.13v.36h-.36l-.12-3.59Zm-.62-17.93.12,3.58-.71,0-.13-3.59Zm-.63-17.94.13,3.59-.72,0-.13-3.59Zm-.62-17.93.12,3.59-.72,0-.12-3.58Zm-.63-17.93.12,3.59-.71,0-.13-3.58Zm-.63-17.93.13,3.58-.72,0-.12-3.59Zm-4.46-14.57,3.59-.12,0,.71L204.2,78ZM197,88.64l-.12-3.58.71,0,.13,3.59Zm.63,17.93-.13-3.58.72,0,.13,3.59Zm.62,17.94-.12-3.59.72,0,.12,3.58Zm.63,17.93-.13-3.59.72,0,.13,3.58Zm.63,17.93-.13-3.58.72,0,.12,3.59Zm.62,17.93-.12-3.58.71,0,.13,3.59Z"/><path class="cls-2" d="M226.29,183.39l-1.08,3.79-3.8-1.09.2-.69,3.45,1-.1.35-.35-.1,1-3.45Zm5-17.25-1,3.45-.69-.2,1-3.45Zm4.95-17.25-1,3.45-.69-.2,1-3.45Zm4.94-17.25-1,3.45-.69-.2,1-3.45Zm5-17.25-1,3.45-.69-.19,1-3.45ZM251,97.15l-1,3.45-.69-.2,1-3.45Zm.26-15.24,3.45,1-.19.69-3.45-1ZM241,90.53l1-3.45.69.2-1,3.45ZM236,107.78l1-3.45.69.2-1,3.45ZM231.08,125l1-3.45.69.2-1,3.45Zm-4.94,17.25,1-3.45.69.19-1,3.45Zm-4.95,17.24,1-3.45.69.2-1,3.45Zm-4.95,17.25,1-3.45.69.2-1,3.45Z"/><path class="cls-2" d="M239.53,189.68,237.32,193l-3.27-2.2.4-.6,3,2-.2.3-.3-.21,2-3Zm10-14.88-2,3-.59-.4,2-3Zm10-14.87-2,3-.6-.4,2-3Zm10-14.88-2,3-.59-.4,2-3Zm10-14.87-2,3-.59-.4,2-3Zm10-14.88-2,3-.6-.4,2-3Zm5-14.4,3,2-.4.6-3-2Zm-12.47,5,2-3,.59.4-2,3Zm-10,14.87,2-3,.6.4-2,3Zm-10,14.88,2-3,.6.4-2,3Zm-10,14.87,2-3,.59.4-2,3Zm-10,14.88,2-3,.6.4-2,3Zm-10,14.87,2-3,.59.4-2,3Z"/><rect class="cls-3" x="156.35" y="245.93" width="18.46" height="10.77" transform="translate(-75.97 71.79) rotate(-20)"/><rect class="cls-4" x="151.56" y="230.13" width="18.46" height="10.77" transform="translate(-8.12 5.75) rotate(-2)"/><rect class="cls-3" x="155.73" y="209.79" width="10.77" height="18.46" transform="translate(-93.83 313.52) rotate(-74)"/><rect class="cls-3" x="161.76" y="195.36" width="10.77" height="16.97" transform="matrix(0.56, -0.83, 0.83, 0.56, -95.31, 228.43)"/><rect class="cls-4" x="171.57" y="182.37" width="10.77" height="16.97" transform="translate(-79.99 149.4) rotate(-38)"/><rect class="cls-3" x="184.91" y="173.05" width="10.77" height="16.97" transform="translate(-50.61 76.03) rotate(-20)"/><rect class="cls-4" x="200.47" y="168.31" width="10.77" height="16.97" transform="translate(-6.04 7.29) rotate(-2)"/><rect class="cls-2" x="201.79" y="155.99" width="49.68" height="10.77" transform="translate(9.03 334.74) rotate(-74)"/><rect class="cls-5" x="201.79" y="155.99" width="49.68" height="10.77" transform="translate(9.04 334.75) rotate(-74)"/><rect class="cls-3" x="229.02" y="177.03" width="16.97" height="10.77" transform="translate(-46.53 277.31) rotate(-56)"/><path class="cls-6" d="M327.37,36.35V22.91h4.89c2.48,0,3.83,1.44,3.83,3.87a3.5,3.5,0,0,1-3.83,3.87H329v5.7ZM329,29.24h3.24a1.89,1.89,0,0,0,2.16-2v-1a1.9,1.9,0,0,0-2.16-2H329Z"/><path class="cls-6" d="M338.46,31.38c0-3.16,1.71-5.2,4.5-5.2s4.51,2,4.51,5.2-1.71,5.2-4.51,5.2S338.46,34.54,338.46,31.38Zm7.37.71V30.67c0-2.14-1.15-3.16-2.87-3.16s-2.87,1-2.87,3.16v1.42c0,2.14,1.16,3.16,2.87,3.16S345.83,34.23,345.83,32.09Z"/><path class="cls-6" d="M350,34.64l1-.91a4.59,4.59,0,0,0,3.6,1.56c1.54,0,2.64-.54,2.64-1.71s-.85-1.31-1.75-1.45L354,31.9c-1.41-.21-3.41-.6-3.41-2.75,0-2,1.69-3,4-3a5.31,5.31,0,0,1,4.05,1.6l-1,.94a3.79,3.79,0,0,0-3.1-1.25c-1.56,0-2.43.56-2.43,1.58s.87,1.31,1.75,1.44l1.56.24c1.43.21,3.41.59,3.41,2.75,0,2-1.66,3.1-4.2,3.1A5.85,5.85,0,0,1,350,34.64Z"/><path class="cls-6" d="M361.58,34.64l1-.91a4.62,4.62,0,0,0,3.6,1.56c1.55,0,2.64-.54,2.64-1.71s-.84-1.31-1.75-1.45l-1.56-.23c-1.4-.21-3.41-.6-3.41-2.75,0-2,1.7-3,4-3a5.27,5.27,0,0,1,4,1.6l-1,.94a3.77,3.77,0,0,0-3.1-1.25c-1.56,0-2.43.56-2.43,1.58s.87,1.31,1.76,1.44l1.56.24c1.42.21,3.4.59,3.4,2.75,0,2-1.65,3.1-4.19,3.1A5.88,5.88,0,0,1,361.58,34.64Z"/><path class="cls-6" d="M373.89,35h3.58V27.72h-3.58V26.41H379V35h3.35v1.31h-8.47ZM377,23.24v-.31c0-.56.33-1,1.21-1s1.21.43,1.21,1v.31c0,.55-.32,1-1.21,1S377,23.79,377,23.24Z"/><path class="cls-6" d="M385.23,22.1h1.54V28h.08a3.25,3.25,0,0,1,3.06-1.85c2.43,0,3.89,1.95,3.89,5.2s-1.46,5.2-3.89,5.2a3.25,3.25,0,0,1-3.06-1.85h-.08v1.62h-1.54Zm6.91,10.13v-1.7a2.7,2.7,0,0,0-2.83-3c-1.36,0-2.54.71-2.54,2v3.58c0,1.33,1.18,2,2.54,2A2.7,2.7,0,0,0,392.14,32.23Z"/><path class="cls-6" d="M396.5,35H400V23.41H396.5V22.1h5V35H405v1.31H396.5Z"/><path class="cls-6" d="M407.8,31.4c0-3.18,1.87-5.22,4.56-5.22s4.41,2,4.41,4.85v.74h-7.35v.46a2.87,2.87,0,0,0,3,3,3,3,0,0,0,2.85-1.73l1.14.77a4.17,4.17,0,0,1-4,2.29C409.61,36.58,407.8,34.54,407.8,31.4Zm1.62-.92v.13h5.7V30.4a2.72,2.72,0,0,0-2.76-2.95A2.9,2.9,0,0,0,409.42,30.48Z"/><path class="cls-6" d="M439.15,36.35a1.61,1.61,0,0,1-1.77-1.62h-.1a2.85,2.85,0,0,1-3,1.85c-2.08,0-3.41-1.16-3.41-3s1.29-2.89,4.27-2.89h2.12v-1c0-1.45-.87-2.2-2.37-2.2A2.81,2.81,0,0,0,432.25,29l-1-.77a4,4,0,0,1,3.8-2c2.33,0,3.81,1.25,3.81,3.35V35h1.39v1.35Zm-1.87-2.89V31.82h-2.12c-1.83,0-2.66.54-2.66,1.51v.4c0,1,.79,1.56,2.07,1.56C436.14,35.29,437.28,34.48,437.28,33.46Z"/><path class="cls-6" d="M443.06,36.35V26.41h1.54V28h.07a2.83,2.83,0,0,1,2.83-1.85c2.09,0,3.45,1.39,3.45,3.8v6.37h-1.54V30.24c0-1.8-.83-2.69-2.35-2.69-1.23,0-2.46.6-2.46,1.91v6.89Z"/><path class="cls-6" d="M454,34.64l1-.91a4.62,4.62,0,0,0,3.6,1.56c1.55,0,2.64-.54,2.64-1.71s-.84-1.31-1.75-1.45L458,31.9c-1.4-.21-3.41-.6-3.41-2.75,0-2,1.7-3,4-3a5.27,5.27,0,0,1,4,1.6l-1,.94a3.77,3.77,0,0,0-3.1-1.25c-1.56,0-2.43.56-2.43,1.58s.87,1.31,1.76,1.44l1.56.24c1.42.21,3.4.59,3.4,2.75,0,2-1.65,3.1-4.19,3.1A5.88,5.88,0,0,1,454,34.64Z"/><path class="cls-6" d="M464.86,26.41h1.36L467.36,35h.17l1.7-8.59h1.69l1.7,8.59h.17l1.13-8.59h1.33l-1.52,9.94h-2L470.15,28H470l-1.62,8.32h-2Z"/><path class="cls-6" d="M477.12,31.4c0-3.18,1.87-5.22,4.56-5.22s4.41,2,4.41,4.85v.74h-7.35v.46a2.87,2.87,0,0,0,3,3,3,3,0,0,0,2.85-1.73l1.14.77a4.16,4.16,0,0,1-4,2.29C478.93,36.58,477.12,34.54,477.12,31.4Zm1.62-.92v.13h5.7V30.4a2.72,2.72,0,0,0-2.76-2.95A2.9,2.9,0,0,0,478.74,30.48Z"/><path class="cls-6" d="M488.87,35h2.91V27.72h-2.91V26.41h4.45v2.51h.09a3.2,3.2,0,0,1,3.35-2.51h1.39V28h-1.87a2.71,2.71,0,0,0-3,2.8V35h3.85v1.31h-8.3Z"/><path class="cls-6" d="M500.23,34.64l1-.91a4.59,4.59,0,0,0,3.6,1.56c1.54,0,2.64-.54,2.64-1.71s-.85-1.31-1.76-1.45l-1.55-.23c-1.41-.21-3.41-.6-3.41-2.75,0-2,1.69-3,4-3a5.31,5.31,0,0,1,4,1.6l-1,.94a3.8,3.8,0,0,0-3.11-1.25c-1.56,0-2.42.56-2.42,1.58s.86,1.31,1.75,1.44l1.56.24c1.43.21,3.41.59,3.41,2.75,0,2-1.66,3.1-4.2,3.1A5.85,5.85,0,0,1,500.23,34.64Z"/><path class="cls-6" d="M528.3,36.35a2,2,0,0,1-2.19-2.27V27.72H522.8V26.41h2.46c.66,0,.91-.23.91-.9v-2.6h1.48v3.5h4.52v1.31h-4.52V35h4.52v1.31Z"/><path class="cls-6" d="M534.87,31.38c0-3.16,1.71-5.2,4.51-5.2s4.5,2,4.5,5.2-1.71,5.2-4.5,5.2S534.87,34.54,534.87,31.38Zm7.38.71V30.67c0-2.14-1.16-3.16-2.87-3.16s-2.87,1-2.87,3.16v1.42c0,2.14,1.15,3.16,2.87,3.16S542.25,34.23,542.25,32.09Z"/><path class="cls-6" d="M331.89,59.46a2,2,0,0,1-2.19-2.27V50.83h-3.32V49.52h2.47c.65,0,.9-.23.9-.9V46h1.49v3.5h4.52v1.31h-4.52v7.32h4.52v1.31Z"/><path class="cls-6" d="M339.07,45.21h1.54v5.93h.08a2.83,2.83,0,0,1,2.83-1.85c2.08,0,3.45,1.39,3.45,3.79v6.38h-1.54V53.35c0-1.81-.83-2.69-2.35-2.69-1.23,0-2.47.59-2.47,1.9v6.9h-1.54Z"/><path class="cls-6" d="M350.78,58.15h3.58V50.83h-3.58V49.52h5.12v8.63h3.35v1.31h-8.47Zm3.14-11.81V46c0-.56.33-1,1.21-1s1.22.43,1.22,1v.3c0,.56-.33,1-1.22,1S353.92,46.9,353.92,46.34Z"/><path class="cls-6" d="M361.58,57.74l1-.9a4.62,4.62,0,0,0,3.6,1.56c1.55,0,2.64-.54,2.64-1.72s-.84-1.3-1.75-1.44L365.55,55c-1.4-.21-3.41-.6-3.41-2.75,0-2,1.7-3,4-3a5.27,5.27,0,0,1,4,1.6l-1,.94a3.74,3.74,0,0,0-3.1-1.25c-1.56,0-2.43.56-2.43,1.58s.87,1.31,1.76,1.44l1.56.23c1.42.22,3.4.6,3.4,2.76,0,2-1.65,3.1-4.19,3.1A5.85,5.85,0,0,1,361.58,57.74Z"/><path class="cls-6" d="M391.59,57.84h-.08a3.27,3.27,0,0,1-3.06,1.85c-2.43,0-3.89-1.95-3.89-5.2s1.46-5.2,3.89-5.2a3.27,3.27,0,0,1,3.06,1.85h.08V49.52h1.54V63.31h-1.54Zm0-1.56V52.7c0-1.33-1.18-2-2.55-2a2.7,2.7,0,0,0-2.83,3v1.7a2.7,2.7,0,0,0,2.83,3C390.41,58.32,391.59,57.61,391.59,56.28Z"/><path class="cls-6" d="M403.08,57.84H403a2.82,2.82,0,0,1-2.83,1.85c-2.08,0-3.44-1.39-3.44-3.8V49.52h1.54v6.11c0,1.81.83,2.69,2.35,2.69,1.23,0,2.46-.6,2.46-1.91V49.52h1.54v9.94h-1.54Z"/><path class="cls-6" d="M407.8,54.51c0-3.18,1.87-5.22,4.56-5.22s4.41,2,4.41,4.85v.73h-7.35v.47a2.87,2.87,0,0,0,3,3,3,3,0,0,0,2.85-1.73l1.14.77a4.17,4.17,0,0,1-4,2.29C409.61,59.69,407.8,57.65,407.8,54.51Zm1.62-.93v.14h5.7v-.21a2.72,2.72,0,0,0-2.76-2.95A2.9,2.9,0,0,0,409.42,53.58Z"/><path class="cls-6" d="M419.35,57.74l1-.9A4.61,4.61,0,0,0,424,58.4c1.54,0,2.64-.54,2.64-1.72s-.85-1.3-1.75-1.44L423.32,55c-1.41-.21-3.41-.6-3.41-2.75,0-2,1.7-3,4-3a5.27,5.27,0,0,1,4,1.6l-1,.94a3.74,3.74,0,0,0-3.1-1.25c-1.56,0-2.43.56-2.43,1.58s.87,1.31,1.75,1.44l1.56.23c1.43.22,3.41.6,3.41,2.76,0,2-1.65,3.1-4.19,3.1A5.85,5.85,0,0,1,419.35,57.74Z"/><path class="cls-6" d="M435.88,59.46a2,2,0,0,1-2.2-2.27V50.83h-3.31V49.52h2.46c.66,0,.91-.23.91-.9V46h1.48v3.5h4.53v1.31h-4.53v7.32h4.53v1.31Z"/><path class="cls-6" d="M443.21,58.15h3.58V50.83h-3.58V49.52h5.12v8.63h3.35v1.31h-8.47Zm3.14-11.81V46c0-.56.33-1,1.21-1s1.22.43,1.22,1v.3c0,.56-.33,1-1.22,1S446.35,46.9,446.35,46.34Z"/><path class="cls-6" d="M454,54.49c0-3.16,1.72-5.2,4.51-5.2s4.51,2,4.51,5.2-1.72,5.2-4.51,5.2S454,57.65,454,54.49Zm7.38.71V53.78c0-2.14-1.16-3.16-2.87-3.16s-2.87,1-2.87,3.16V55.2c0,2.14,1.16,3.16,2.87,3.16S461.37,57.34,461.37,55.2Z"/><path class="cls-6" d="M466.16,59.46V49.52h1.55v1.62h.07a2.83,2.83,0,0,1,2.83-1.85c2.08,0,3.45,1.39,3.45,3.79v6.38h-1.54V53.35c0-1.81-.83-2.69-2.35-2.69-1.23,0-2.46.59-2.46,1.9v6.9Z"/><path class="cls-7" d="M307.84,39.53a205.34,205.34,0,0,0-15.47,15.32L288.92,54c4.36-4.89,8.94-9.7,13.78-14.31-3.46-1-7-2-10.49-2.81l-2.64-.63-1.33-.3-6-1.25A246.71,246.71,0,0,0,195,33a202.35,202.35,0,0,0-80.86,32A206.25,206.25,0,0,0,80.71,93.24c-5,5.32-9.79,10.86-14.25,16.64-1.13,1.44-2.18,2.94-3.27,4.4S61,117.22,60,118.75l-3.08,4.53L54,127.93A219.12,219.12,0,0,0,24.2,209.78a227.28,227.28,0,0,0,4,87.09l-3.28.8a230.47,230.47,0,0,1-4-88.4,222.61,222.61,0,0,1,30.29-83.11l3-4.72,3.13-4.61c1-1.55,2.11-3,3.22-4.54s2.17-3,3.32-4.47c4.54-5.88,9.39-11.5,14.48-16.91a210.26,210.26,0,0,1,33.93-28.74,205.6,205.6,0,0,1,82.2-32.55,250.24,250.24,0,0,1,88.51,1.73L289,32.62l1.35.3,2.68.64c3.57.87,7.13,1.8,10.67,2.87-1.58-6.54-3.49-13.06-5.63-19.58l4.12,1A216.09,216.09,0,0,1,307.84,39.53Z"/><path class="cls-6" d="M537.59,262.1H526.33V260l5.63-5.08c1.64-1.47,2.83-3,2.83-4.76v-.29a2.86,2.86,0,0,0-3.17-3.19,3.52,3.52,0,0,0-3.62,2.88l-1.82-.68a5.39,5.39,0,0,1,5.49-4c3.36,0,5.24,2,5.24,4.88,0,2.56-1.52,4.45-3.77,6.4l-4.71,4.11h9.16Z"/><path class="cls-6" d="M210.44,221.63H202.9l-.48,6.46h.17a3.88,3.88,0,0,1,3.53-1.84,4.85,4.85,0,0,1,5.1,5.2c0,3.29-2.15,5.58-5.75,5.58a6.12,6.12,0,0,1-5.37-2.87l1.52-1.16a4.21,4.21,0,0,0,3.89,2.27,3.28,3.28,0,0,0,3.61-3.56v-.19a3.28,3.28,0,0,0-3.65-3.55,3.76,3.76,0,0,0-3.1,1.42l-1.71-.24.6-9.28h9.18Z"/><path class="cls-6" d="M214.19,228.31c0-5.51,1.78-8.73,5.89-8.73s5.9,3.22,5.9,8.73-1.79,8.72-5.9,8.72S214.19,233.82,214.19,228.31Zm9.69,1.37v-2.75c0-3.38-1.09-5.59-3.8-5.59s-3.79,2.21-3.79,5.59v2.75c0,3.39,1.09,5.59,3.79,5.59S223.88,233.07,223.88,229.68Zm-5.3-1.11V228c0-.65.39-1.16,1.5-1.16s1.5.51,1.5,1.16v.53c0,.65-.38,1.16-1.5,1.16S218.58,229.22,218.58,228.57Z"/><path class="cls-8" d="M547.11,258.27a15.57,15.57,0,0,1-1.09,2.9,15.8,15.8,0,0,1-1.63,2.63,15.64,15.64,0,0,1-2.12,2.26,16.42,16.42,0,0,1-2.51,1.8,15.55,15.55,0,0,1-2.82,1.28,15.75,15.75,0,0,1-3,.7,15.22,15.22,0,0,1-3.09.1,15,15,0,0,1-3.06-.5A15.73,15.73,0,0,1,520,264.6a15.46,15.46,0,0,1-1.81-2.52,16.22,16.22,0,0,1-1.27-2.82,15.5,15.5,0,0,1-.71-3,16.05,16.05,0,0,1-.1-3.1,15.8,15.8,0,0,1,.51-3.05,15.14,15.14,0,0,1,1.09-2.9,15.62,15.62,0,0,1,3.75-4.89,15.7,15.7,0,0,1,8.35-3.78,16,16,0,0,1,3.09-.1,15.6,15.6,0,0,1,6,1.59,15.85,15.85,0,0,1,2.63,1.64,15.14,15.14,0,0,1,2.26,2.12,15.38,15.38,0,0,1,1.81,2.51,16.22,16.22,0,0,1,1.27,2.82,15.6,15.6,0,0,1,.71,3,16.78,16.78,0,0,1,.1,3.09A15.8,15.8,0,0,1,547.11,258.27Z"/><path class="cls-6" d="M297,182.32v11.87h-1.6V182.32H291v-1.39h10.45v1.39Z"/><path class="cls-6" d="M303.75,180.13h1.52V186h.08a2.78,2.78,0,0,1,2.79-1.82c2.05,0,3.4,1.37,3.4,3.74v6.29H310v-6c0-1.79-.81-2.66-2.31-2.66-1.22,0-2.44.59-2.44,1.88v6.8h-1.52Z"/><path class="cls-6" d="M314.57,189.31c0-3.14,1.84-5.15,4.5-5.15s4.35,2,4.35,4.79v.72h-7.26v.46a2.84,2.84,0,0,0,3,3A3,3,0,0,0,322,191.4l1.13.76a4.12,4.12,0,0,1-3.94,2.26C316.35,194.42,314.57,192.4,314.57,189.31Zm1.59-.91v.13h5.62v-.21a2.68,2.68,0,0,0-2.71-2.91A2.88,2.88,0,0,0,316.16,188.4Z"/><path class="cls-6" d="M337.69,189.29c0-3.12,1.65-5.13,4.42-5.13a3.64,3.64,0,0,1,3.63,2.26l-1.21.65a2.37,2.37,0,0,0-2.42-1.6,2.7,2.7,0,0,0-2.79,3v1.68a2.71,2.71,0,0,0,2.83,3,2.75,2.75,0,0,0,2.66-1.71l1.09.74a3.85,3.85,0,0,1-3.77,2.28C339.32,194.42,337.69,192.39,337.69,189.29Z"/><path class="cls-6" d="M349.51,192.9H353v-7.22h-3.53v-1.29h5.05v8.51h3.3v1.29h-8.35Zm3.09-11.65V181c0-.55.33-1,1.2-1s1.2.42,1.2,1v.3c0,.55-.33,1-1.2,1S352.6,181.8,352.6,181.25Z"/><path class="cls-6" d="M360.36,192.9h2.86v-7.22h-2.86v-1.29h4.38v2.47h.1a3.14,3.14,0,0,1,3.3-2.47h1.37v1.52h-1.84a2.67,2.67,0,0,0-2.93,2.75v4.24h3.8v1.29h-8.18Z"/><path class="cls-6" d="M371.89,189.29c0-3.12,1.65-5.13,4.42-5.13a3.64,3.64,0,0,1,3.63,2.26l-1.21.65a2.37,2.37,0,0,0-2.42-1.6,2.7,2.7,0,0,0-2.79,3v1.68a2.71,2.71,0,0,0,2.83,3A2.75,2.75,0,0,0,379,191.4l1.08.74a3.82,3.82,0,0,1-3.76,2.28C373.52,194.42,371.89,192.39,371.89,189.29Z"/><path class="cls-6" d="M383.21,192.9h3.42V181.42h-3.42v-1.29h4.94V192.9h3.42v1.29h-8.36Z"/><path class="cls-6" d="M394.36,189.31c0-3.14,1.85-5.15,4.51-5.15s4.35,2,4.35,4.79v.72H396v.46a2.84,2.84,0,0,0,3,3,3,3,0,0,0,2.81-1.71l1.12.76a4.09,4.09,0,0,1-3.93,2.26C396.15,194.42,394.36,192.4,394.36,189.31Zm1.6-.91v.13h5.62v-.21a2.68,2.68,0,0,0-2.71-2.91A2.87,2.87,0,0,0,396,188.4Z"/><path class="cls-6" d="M417.16,192.5l1-.89a4.55,4.55,0,0,0,3.55,1.54c1.52,0,2.61-.54,2.61-1.69s-.84-1.3-1.73-1.43l-1.54-.23c-1.39-.21-3.37-.59-3.37-2.71,0-2,1.68-2.93,4-2.93a5.21,5.21,0,0,1,4,1.58l-1,.93a3.71,3.71,0,0,0-3.06-1.24c-1.54,0-2.39.55-2.39,1.56s.85,1.29,1.72,1.43l1.54.22c1.41.21,3.37.59,3.37,2.72,0,1.94-1.64,3.06-4.15,3.06A5.77,5.77,0,0,1,417.16,192.5Z"/><path class="cls-6" d="M429.3,192.9h3.54v-7.22H429.3v-1.29h5.06v8.51h3.3v1.29H429.3Zm3.1-11.65V181c0-.55.32-1,1.2-1s1.19.42,1.19,1v.3c0,.55-.32,1-1.19,1S432.4,181.8,432.4,181.25Z"/><path class="cls-6" d="M440.31,194.19v-1.46l6.32-7h-6.12v-1.29h7.77v1.46L442,192.9h6.51v1.29Z"/><path class="cls-6" d="M451.36,189.31c0-3.14,1.85-5.15,4.51-5.15s4.35,2,4.35,4.79v.72H453v.46a2.84,2.84,0,0,0,3,3,3,3,0,0,0,2.81-1.71l1.12.76a4.1,4.1,0,0,1-3.93,2.26C453.15,194.42,451.36,192.4,451.36,189.31Zm1.6-.91v.13h5.62v-.21a2.68,2.68,0,0,0-2.71-2.91A2.87,2.87,0,0,0,453,188.4Z"/><path class="cls-6" d="M474.9,192.9h3.54v-7.22H474.9v-1.29H480v8.51h3.3v1.29H474.9Zm3.1-11.65V181c0-.55.32-1,1.2-1s1.19.42,1.19,1v.3c0,.55-.32,1-1.19,1S478,181.8,478,181.25Z"/><path class="cls-6" d="M486.15,194.19v-9.8h1.52V186h.08a2.77,2.77,0,0,1,2.79-1.82c2,0,3.4,1.37,3.4,3.74v6.29h-1.52v-6c0-1.79-.82-2.66-2.32-2.66-1.21,0-2.43.59-2.43,1.88v6.8Z"/><path class="cls-6" d="M503.76,192.59h-.07a3.22,3.22,0,0,1-3,1.83c-2.4,0-3.84-1.92-3.84-5.13s1.44-5.13,3.84-5.13a3.23,3.23,0,0,1,3,1.82h.07v-5.85h1.52v14.06h-1.52Zm0-1.53v-3.54c0-1.31-1.15-2-2.5-2a2.67,2.67,0,0,0-2.8,2.94v1.68a2.67,2.67,0,0,0,2.8,2.94C502.61,193.07,503.76,192.37,503.76,191.06Z"/><path class="cls-6" d="M509.1,192.9h3.54v-7.22H509.1v-1.29h5.06v8.51h3.3v1.29H509.1Zm3.1-11.65V181c0-.55.32-1,1.2-1s1.19.42,1.19,1v.3c0,.55-.32,1-1.19,1S512.2,181.8,512.2,181.25Z"/><path class="cls-6" d="M520.08,189.29c0-3.12,1.66-5.13,4.43-5.13a3.64,3.64,0,0,1,3.63,2.26l-1.22.65a2.36,2.36,0,0,0-2.41-1.6,2.7,2.7,0,0,0-2.79,3v1.68a2.71,2.71,0,0,0,2.83,3,2.75,2.75,0,0,0,2.66-1.71l1.08.74a3.82,3.82,0,0,1-3.76,2.28C521.72,194.42,520.08,192.39,520.08,189.29Z"/><path class="cls-6" d="M539.29,194.19a1.59,1.59,0,0,1-1.74-1.6h-.1a2.81,2.81,0,0,1-2.94,1.83c-2.06,0-3.37-1.14-3.37-3s1.28-2.85,4.22-2.85h2.09v-1c0-1.43-.85-2.17-2.34-2.17a2.76,2.76,0,0,0-2.62,1.45l-1-.76a3.92,3.92,0,0,1,3.74-2c2.3,0,3.76,1.23,3.76,3.31v5.39h1.37v1.33Zm-1.84-2.85v-1.61h-2.09c-1.8,0-2.62.53-2.62,1.48v.4c0,1,.78,1.54,2,1.54C536.33,193.15,537.45,192.35,537.45,191.34Z"/><path class="cls-6" d="M547.46,194.19A2,2,0,0,1,545.3,192v-6.27H542v-1.29h2.43c.65,0,.89-.23.89-.89v-2.57h1.47v3.46h4.46v1.29h-4.46v7.22h4.46v1.29Z"/><path class="cls-6" d="M554,189.31c0-3.14,1.84-5.15,4.5-5.15s4.36,2,4.36,4.79v.72h-7.26v.46a2.84,2.84,0,0,0,3,3,3,3,0,0,0,2.81-1.71l1.12.76a4.1,4.1,0,0,1-3.93,2.26C555.75,194.42,554,192.4,554,189.31Zm1.6-.91v.13h5.62v-.21a2.68,2.68,0,0,0-2.72-2.91A2.87,2.87,0,0,0,555.56,188.4Z"/><path class="cls-6" d="M565.36,192.5l1-.89a4.55,4.55,0,0,0,3.55,1.54c1.52,0,2.6-.54,2.6-1.69s-.83-1.3-1.73-1.43l-1.54-.23c-1.38-.21-3.36-.59-3.36-2.71,0-2,1.67-2.93,4-2.93a5.2,5.2,0,0,1,4,1.58l-1,.93a3.67,3.67,0,0,0-3.05-1.24c-1.54,0-2.4.55-2.4,1.56s.86,1.29,1.73,1.43l1.54.22c1.41.21,3.36.59,3.36,2.72,0,1.94-1.63,3.06-4.14,3.06A5.77,5.77,0,0,1,565.36,192.5Z"/><path class="cls-6" d="M292.35,202.93h1.52v5.85H294a2.78,2.78,0,0,1,2.79-1.82c2.05,0,3.4,1.37,3.4,3.74V217h-1.52v-6c0-1.79-.81-2.66-2.31-2.66-1.22,0-2.44.59-2.44,1.88V217h-1.52Z"/><path class="cls-6" d="M311.3,217a1.6,1.6,0,0,1-1.75-1.6h-.1a2.81,2.81,0,0,1-2.94,1.83c-2.05,0-3.36-1.14-3.36-3s1.27-2.85,4.21-2.85h2.09v-1c0-1.43-.85-2.17-2.33-2.17a2.78,2.78,0,0,0-2.63,1.45l-1-.76a3.93,3.93,0,0,1,3.74-2c2.3,0,3.76,1.23,3.76,3.31v5.39h1.37V217Zm-1.85-2.85v-1.61h-2.09c-1.8,0-2.62.53-2.62,1.48v.4c0,1,.78,1.54,2,1.54C308.33,216,309.45,215.15,309.45,214.14Z"/><path class="cls-6" d="M318,217l-3.51-9.8h1.54l1.4,4.1,1.52,4.43h.08l1.52-4.43,1.4-4.1h1.51L320,217Z"/><path class="cls-6" d="M326,212.11c0-3.14,1.85-5.15,4.51-5.15s4.35,2,4.35,4.79v.72h-7.26v.45a2.84,2.84,0,0,0,3,3,3,3,0,0,0,2.81-1.71l1.12.76a4.09,4.09,0,0,1-3.93,2.26C327.75,217.22,326,215.2,326,212.11Zm1.6-.91v.13h5.62v-.21a2.68,2.68,0,0,0-2.71-2.91A2.88,2.88,0,0,0,327.56,211.2Z"/><path class="cls-6" d="M348.52,217v-9.8h1.4v1.14H350a1.88,1.88,0,0,1,1.88-1.37,1.63,1.63,0,0,1,1.79,1.54h.05a2.16,2.16,0,0,1,2.13-1.54c1.6,0,2,1.16,2,3.23V217h-1.4v-6.55c0-1.68-.29-2.23-1.2-2.23s-1.37.54-1.37,1.58V217h-1.4v-6.55c0-1.68-.29-2.23-1.18-2.23s-1.39.54-1.39,1.58V217Z"/><path class="cls-6" d="M368.3,217a1.6,1.6,0,0,1-1.75-1.6h-.1a2.81,2.81,0,0,1-2.94,1.83c-2.05,0-3.36-1.14-3.36-3s1.27-2.85,4.21-2.85h2.09v-1c0-1.43-.85-2.17-2.33-2.17a2.78,2.78,0,0,0-2.63,1.45l-1-.76a3.93,3.93,0,0,1,3.74-2c2.3,0,3.76,1.23,3.76,3.31v5.39h1.37V217Zm-1.85-2.85v-1.61h-2.09c-1.8,0-2.62.53-2.62,1.48v.4c0,1,.78,1.54,2,1.54C365.33,216,366.45,215.15,366.45,214.14Z"/><path class="cls-6" d="M372.15,217v-9.8h1.52v1.59h.08a2.78,2.78,0,0,1,2.79-1.82c2,0,3.4,1.37,3.4,3.74V217h-1.52v-6c0-1.79-.81-2.66-2.31-2.66-1.22,0-2.44.59-2.44,1.88V217Z"/><path class="cls-6" d="M390.56,207.19h1.52l-4.86,11.95a2.29,2.29,0,0,1-2.51,1.65h-1.44V219.5h2.28l1.1-2.7-3.95-9.61h1.56l1.65,4.1,1.46,3.72h.08l1.46-3.72Z"/><path class="cls-6" d="M406.35,202.93h1.52v5.85H408a2.78,2.78,0,0,1,2.79-1.82c2.05,0,3.4,1.37,3.4,3.74V217h-1.52v-6c0-1.79-.82-2.66-2.32-2.66-1.21,0-2.43.59-2.43,1.88V217h-1.52Z"/><path class="cls-6" d="M425.29,217a1.59,1.59,0,0,1-1.74-1.6h-.1a2.81,2.81,0,0,1-2.94,1.83c-2.05,0-3.36-1.14-3.36-3s1.27-2.85,4.21-2.85h2.09v-1c0-1.43-.85-2.17-2.33-2.17a2.77,2.77,0,0,0-2.63,1.45l-1-.76a3.93,3.93,0,0,1,3.74-2c2.3,0,3.76,1.23,3.76,3.31v5.39h1.37V217Zm-1.84-2.85v-1.61h-2.09c-1.8,0-2.62.53-2.62,1.48v.4c0,1,.78,1.54,2,1.54C422.33,216,423.45,215.15,423.45,214.14Z"/><path class="cls-6" d="M432,217l-3.51-9.8h1.54l1.4,4.1,1.52,4.43h.08l1.52-4.43,1.4-4.1h1.5L434,217Z"/><path class="cls-6" d="M440,212.11c0-3.14,1.85-5.15,4.51-5.15s4.35,2,4.35,4.79v.72h-7.26v.45a2.84,2.84,0,0,0,3,3,3,3,0,0,0,2.81-1.71l1.12.76a4.1,4.1,0,0,1-3.93,2.26C441.75,217.22,440,215.2,440,212.11Zm1.6-.91v.13h5.62v-.21a2.68,2.68,0,0,0-2.71-2.91A2.87,2.87,0,0,0,441.56,211.2Z"/><path class="cls-6" d="M470.89,217a1.59,1.59,0,0,1-1.74-1.6h-.1a2.81,2.81,0,0,1-2.94,1.83c-2.06,0-3.37-1.14-3.37-3s1.28-2.85,4.22-2.85h2.09v-1c0-1.43-.85-2.17-2.34-2.17a2.77,2.77,0,0,0-2.62,1.45l-1-.76a3.92,3.92,0,0,1,3.74-2c2.3,0,3.76,1.23,3.76,3.31v5.39h1.37V217Zm-1.84-2.85v-1.61H467c-1.8,0-2.62.53-2.62,1.48v.4c0,1,.78,1.54,2,1.54C467.93,216,469.05,215.15,469.05,214.14Z"/><path class="cls-6" d="M474.75,217v-9.8h1.52v1.59h.08a2.78,2.78,0,0,1,2.79-1.82c2.05,0,3.4,1.37,3.4,3.74V217H481v-6c0-1.79-.82-2.66-2.32-2.66-1.21,0-2.43.59-2.43,1.88V217Z"/><path class="cls-6" d="M485.56,215.3l1-.89a4.55,4.55,0,0,0,3.55,1.54c1.52,0,2.6-.54,2.6-1.69s-.83-1.3-1.73-1.43l-1.53-.23c-1.39-.21-3.37-.59-3.37-2.71,0-2,1.67-2.93,4-2.93a5.19,5.19,0,0,1,4,1.58l-1,.93a3.71,3.71,0,0,0-3.06-1.24c-1.54,0-2.4.55-2.4,1.56s.86,1.29,1.73,1.43l1.54.22c1.41.21,3.36.59,3.36,2.72,0,1.94-1.63,3.06-4.14,3.06A5.77,5.77,0,0,1,485.56,215.3Z"/><path class="cls-6" d="M496.26,207.19h1.35l1.12,8.47h.17l1.67-8.47h1.67l1.68,8.47h.17l1.12-8.47h1.31L505,217h-2l-1.56-8.21h-.15L499.74,217h-2Z"/><path class="cls-6" d="M508.36,212.11c0-3.14,1.84-5.15,4.5-5.15s4.36,2,4.36,4.79v.72H510v.45a2.84,2.84,0,0,0,3,3,3,3,0,0,0,2.81-1.71l1.12.76a4.1,4.1,0,0,1-3.93,2.26C510.15,217.22,508.36,215.2,508.36,212.11Zm1.6-.91v.13h5.62v-.21a2.68,2.68,0,0,0-2.72-2.91A2.87,2.87,0,0,0,510,211.2Z"/><path class="cls-6" d="M520,215.7h2.87v-7.22H520v-1.29h4.39v2.47h.1a3.14,3.14,0,0,1,3.3-2.47h1.37v1.52h-1.84a2.67,2.67,0,0,0-2.93,2.75v4.24h3.8V217H520Z"/><path class="cls-6" d="M531.16,212.11c0-3.14,1.84-5.15,4.5-5.15s4.36,2,4.36,4.79v.72h-7.26v.45a2.84,2.84,0,0,0,3,3,3,3,0,0,0,2.81-1.71l1.12.76a4.1,4.1,0,0,1-3.93,2.26C533,217.22,531.16,215.2,531.16,212.11Zm1.6-.91v.13h5.62v-.21a2.68,2.68,0,0,0-2.72-2.91A2.87,2.87,0,0,0,532.76,211.2Z"/><path class="cls-6" d="M549.36,215.39h-.07a3.22,3.22,0,0,1-3,1.83c-2.4,0-3.84-1.92-3.84-5.13s1.44-5.13,3.84-5.13a3.23,3.23,0,0,1,3,1.82h.07v-5.85h1.52V217h-1.52Zm0-1.53v-3.54c0-1.31-1.16-2-2.5-2a2.67,2.67,0,0,0-2.8,2.94v1.67a2.67,2.67,0,0,0,2.8,3C548.2,215.87,549.36,215.17,549.36,213.86Z"/><path class="cls-6" d="M296.67,239.79a2,2,0,0,1-2.17-2.24v-6.27h-3.27V230h2.44c.64,0,.89-.23.89-.9v-2.56H296V230h4.46v1.29H296v7.22h4.46v1.29Z"/><path class="cls-6" d="M303.75,225.73h1.52v5.85h.08a2.78,2.78,0,0,1,2.79-1.82c2.05,0,3.4,1.37,3.4,3.74v6.29H310v-6c0-1.79-.81-2.66-2.31-2.66-1.22,0-2.44.59-2.44,1.88v6.8h-1.52Z"/><path class="cls-6" d="M315.31,238.5h3.53v-7.22h-3.53V230h5.05v8.51h3.3v1.29h-8.35Zm3.09-11.65v-.3c0-.55.33-1,1.2-1s1.2.42,1.2,1v.3c0,.55-.33,1-1.2,1S318.4,227.4,318.4,226.85Z"/><path class="cls-6" d="M326,238.1l1-.89a4.55,4.55,0,0,0,3.55,1.54c1.52,0,2.61-.54,2.61-1.7s-.84-1.29-1.73-1.42l-1.54-.23c-1.39-.21-3.36-.59-3.36-2.71,0-2,1.67-2.93,4-2.93a5.21,5.21,0,0,1,4,1.58l-1,.93a3.71,3.71,0,0,0-3.06-1.24c-1.54,0-2.39.55-2.39,1.56s.85,1.29,1.73,1.42l1.53.23c1.41.21,3.37.59,3.37,2.72,0,1.94-1.64,3.06-4.14,3.06A5.78,5.78,0,0,1,326,238.1Z"/><path class="cls-6" d="M355.57,238.19h-.08a3.21,3.21,0,0,1-3,1.83c-2.39,0-3.84-1.92-3.84-5.13s1.45-5.13,3.84-5.13a3.22,3.22,0,0,1,3,1.82h.08V230h1.52v13.6h-1.52Zm0-1.53v-3.54c0-1.31-1.16-2-2.51-2a2.66,2.66,0,0,0-2.79,2.94v1.67a2.67,2.67,0,0,0,2.79,2.95C354.41,238.67,355.57,238,355.57,236.66Z"/><path class="cls-6" d="M366.91,238.19h-.08A2.79,2.79,0,0,1,364,240c-2.05,0-3.4-1.37-3.4-3.74V230h1.52v6c0,1.79.82,2.66,2.32,2.66,1.21,0,2.43-.59,2.43-1.88V230h1.52v9.8h-1.52Z"/><path class="cls-6" d="M371.56,234.91c0-3.14,1.85-5.15,4.51-5.15s4.35,2,4.35,4.79v.72h-7.26v.45a2.84,2.84,0,0,0,3,3A3,3,0,0,0,379,237l1.12.76a4.09,4.09,0,0,1-3.93,2.26C373.35,240,371.56,238,371.56,234.91Zm1.6-.91v.13h5.62v-.21a2.68,2.68,0,0,0-2.71-2.91A2.88,2.88,0,0,0,373.16,234Z"/><path class="cls-6" d="M383,238.1l1-.89a4.55,4.55,0,0,0,3.55,1.54c1.52,0,2.61-.54,2.61-1.7s-.84-1.29-1.73-1.42l-1.54-.23c-1.39-.21-3.36-.59-3.36-2.71,0-2,1.67-2.93,4-2.93a5.23,5.23,0,0,1,4,1.58l-1,.93a3.71,3.71,0,0,0-3.06-1.24c-1.54,0-2.39.55-2.39,1.56s.85,1.29,1.72,1.42l1.54.23c1.41.21,3.37.59,3.37,2.72,0,1.94-1.64,3.06-4.15,3.06A5.77,5.77,0,0,1,383,238.1Z"/><path class="cls-6" d="M399.27,239.79a2,2,0,0,1-2.17-2.24v-6.27h-3.27V230h2.43c.65,0,.9-.23.9-.9v-2.56h1.46V230h4.46v1.29h-4.46v7.22h4.46v1.29Z"/><path class="cls-6" d="M406.5,238.5H410v-7.22H406.5V230h5.06v8.51h3.3v1.29H406.5Zm3.1-11.65v-.3c0-.55.32-1,1.2-1s1.19.42,1.19,1v.3c0,.55-.32,1-1.19,1S409.6,227.4,409.6,226.85Z"/><path class="cls-6" d="M417.15,234.89c0-3.12,1.69-5.13,4.44-5.13s4.45,2,4.45,5.13-1.69,5.13-4.45,5.13S417.15,238,417.15,234.89Zm7.27.7v-1.4c0-2.11-1.14-3.12-2.83-3.12s-2.83,1-2.83,3.12v1.4c0,2.11,1.14,3.12,2.83,3.12S424.42,237.7,424.42,235.59Z"/><path class="cls-6" d="M429.15,239.79V230h1.52v1.59h.08a2.78,2.78,0,0,1,2.79-1.82c2,0,3.4,1.37,3.4,3.74v6.29h-1.52v-6c0-1.79-.82-2.66-2.32-2.66-1.21,0-2.43.59-2.43,1.88v6.8Z"/></svg>