<svg id="Layer_1" data-name="Layer 1" xmlns="http://www.w3.org/2000/svg" viewBox="0 0 497.32 163.12"><defs><style>.cls-1{fill:#fbcb9b;}.cls-2,.cls-4{fill:none;stroke:#dcdbdb;}.cls-2{stroke-width:1.1px;}.cls-3{fill:#dcdbdb;}.cls-4{stroke-width:1.1px;}</style></defs><path class="cls-1" d="M398.73,117a2.11,2.11,0,0,1-2.28-2.36v-6.61H393v-1.36h2.56c.68,0,.94-.24.94-.94v-2.7h1.54v3.64h4.71v1.36h-4.71v7.61h4.71V117Z"/><path class="cls-1" d="M406.36,115.66h3.73v-7.61h-3.73v-1.36h5.33v9h3.48V117h-8.81Zm3.27-12.27v-.32c0-.58.34-1,1.26-1s1.26.44,1.26,1v.32c0,.58-.34,1-1.26,1S409.63,104,409.63,103.39Z"/><path class="cls-1" d="M422.28,121.26c-3.32,0-4.69-.92-4.69-2.56a1.93,1.93,0,0,1,1.69-2v-.24a1.48,1.48,0,0,1-.93-1.42c0-1.06.81-1.54,1.87-1.8v-.08a3.33,3.33,0,0,1-2-3.17c0-2.1,1.59-3.56,4-3.56a4.64,4.64,0,0,1,2,.42v-.18c0-.8.34-1.4,1.24-1.4h1.9v1.4h-2.32v.7a3.36,3.36,0,0,1,1.16,2.62c0,2.11-1.6,3.57-4,3.57a5.26,5.26,0,0,1-1-.08c-.62.12-1.48.48-1.48,1.18s.68.76,1.66.76h2.28c2.66,0,3.8,1.08,3.8,2.76C427.48,120.28,425.72,121.26,422.28,121.26Zm1.46-4.34h-3.58a1.46,1.46,0,0,0-1,1.4c0,.9.66,1.66,2.34,1.66H423c1.86,0,3-.58,3-1.7C426,117.46,425.4,116.92,423.74,116.92Zm.8-6.63v-.58c0-1.22-.74-2-2.34-2s-2.32.8-2.32,2v.58c0,1.23.74,2,2.32,2S424.54,111.52,424.54,110.29Z"/><path class="cls-1" d="M430.23,102.21h1.6v6.16h.08a2.93,2.93,0,0,1,2.94-1.92c2.16,0,3.59,1.44,3.59,3.94V117h-1.61v-6.35c0-1.88-.86-2.8-2.44-2.8-1.28,0-2.56.62-2.56,2V117h-1.6Z"/><path class="cls-1" d="M446.78,117a2.11,2.11,0,0,1-2.28-2.36v-6.61h-3.44v-1.36h2.56c.68,0,.94-.24.94-.94v-2.7h1.54v3.64h4.71v1.36H446.1v7.61h4.71V117Z"/><path class="cls-1" d="M453.89,115.66h3.61V103.57h-3.61v-1.36h5.21v13.45h3.6V117h-8.81Z"/><path class="cls-1" d="M473.65,106.69h1.6l-5.12,12.59a2.4,2.4,0,0,1-2.64,1.74H466v-1.36h2.41l1.16-2.84-4.17-10.13H467l1.74,4.32,1.54,3.93h.08l1.54-3.93Z"/><path class="cls-1" d="M393.77,140.38h3v-7.61h-3v-1.36h4.62V134h.1a3.32,3.32,0,0,1,3.49-2.6h1.44V133h-1.94a2.81,2.81,0,0,0-3.09,2.9v4.47h4v1.36h-8.63Z"/><path class="cls-1" d="M405.58,136.6c0-3.31,1.94-5.43,4.75-5.43s4.58,2.12,4.58,5.05V137h-7.65v.48a3,3,0,0,0,3.17,3.14,3.13,3.13,0,0,0,3-1.8l1.18.8a4.32,4.32,0,0,1-4.14,2.38C407.46,142,405.58,139.86,405.58,136.6Zm1.68-1v.14h5.93v-.22a2.82,2.82,0,0,0-2.86-3.06A3,3,0,0,0,407.26,135.63Z"/><path class="cls-1" d="M417.85,140.38h3.61V128.29h-3.61v-1.36h5.21v13.45h3.6v1.36h-8.81Z"/><path class="cls-1" d="M438.17,141.74a1.69,1.69,0,0,1-1.84-1.68h-.1a3,3,0,0,1-3.1,1.92c-2.16,0-3.54-1.2-3.54-3.14s1.34-3,4.44-3h2.2v-1c0-1.5-.9-2.28-2.46-2.28a2.91,2.91,0,0,0-2.76,1.52l-1.08-.8a4.15,4.15,0,0,1,3.94-2.08c2.42,0,4,1.3,4,3.48v5.69h1.45v1.4Zm-1.94-3V137H434c-1.9,0-2.76.56-2.76,1.56V139c0,1.06.82,1.62,2.14,1.62C435.05,140.64,436.23,139.8,436.23,138.74Z"/><path class="cls-1" d="M446.78,141.74a2.11,2.11,0,0,1-2.28-2.36v-6.61h-3.44v-1.36h2.56c.68,0,.94-.24.94-.94v-2.7h1.54v3.64h4.71v1.36H446.1v7.61h4.71v1.36Z"/><path class="cls-1" d="M453.63,136.6c0-3.31,1.94-5.43,4.75-5.43s4.58,2.12,4.58,5.05V137h-7.65v.48a3,3,0,0,0,3.17,3.14,3.13,3.13,0,0,0,3-1.8l1.18.8a4.32,4.32,0,0,1-4.14,2.38C455.51,142,453.63,139.86,453.63,136.6Zm1.68-1v.14h5.93v-.22a2.82,2.82,0,0,0-2.86-3.06A3,3,0,0,0,455.31,135.63Z"/><path class="cls-1" d="M472.81,140.06h-.08a3.38,3.38,0,0,1-3.18,1.92c-2.52,0-4.05-2-4.05-5.4s1.53-5.41,4.05-5.41a3.38,3.38,0,0,1,3.18,1.92h.08v-6.16h1.6v14.81h-1.6Zm0-1.62v-3.73c0-1.38-1.22-2.12-2.64-2.12a2.81,2.81,0,0,0-2.94,3.1v1.77a2.81,2.81,0,0,0,2.94,3.1C471.59,140.56,472.81,139.82,472.81,138.44Z"/><path class="cls-1" d="M183.29,115.66h3.6V103.57h-3.6v-1.36h5.2v13.45h3.6V117h-8.8Z"/><path class="cls-1" d="M195,111.86c0-3.29,1.78-5.41,4.68-5.41s4.69,2.12,4.69,5.41-1.78,5.4-4.69,5.4S195,115.14,195,111.86Zm7.67.74v-1.49c0-2.22-1.21-3.28-3-3.28s-3,1.06-3,3.28v1.49c0,2.22,1.2,3.28,3,3.28S202.69,114.82,202.69,112.6Z"/><path class="cls-1" d="M207,111.86c0-3.29,1.78-5.41,4.69-5.41s4.68,2.12,4.68,5.41-1.78,5.4-4.68,5.4S207,115.14,207,111.86Zm7.67.74v-1.49c0-2.22-1.2-3.28-3-3.28s-3,1.06-3,3.28v1.49c0,2.22,1.2,3.28,3,3.28S214.7,114.82,214.7,112.6Z"/><path class="cls-1" d="M219.06,115.24l1.08-.94a4.81,4.81,0,0,0,3.75,1.62c1.6,0,2.74-.56,2.74-1.78s-.88-1.36-1.82-1.5l-1.62-.24c-1.46-.22-3.55-.62-3.55-2.87,0-2.06,1.77-3.08,4.17-3.08a5.48,5.48,0,0,1,4.2,1.66l-1,1a3.89,3.89,0,0,0-3.22-1.3c-1.62,0-2.52.58-2.52,1.64s.9,1.36,1.82,1.5l1.62.24c1.48.22,3.54.63,3.54,2.87,0,2-1.72,3.22-4.36,3.22A6.09,6.09,0,0,1,219.06,115.24Z"/><path class="cls-1" d="M231.08,111.88c0-3.31,1.94-5.43,4.74-5.43s4.59,2.12,4.59,5v.76h-7.65v.48a3,3,0,0,0,3.16,3.14,3.13,3.13,0,0,0,3-1.8l1.18.8a4.32,4.32,0,0,1-4.14,2.38C233,117.26,231.08,115.14,231.08,111.88Zm1.68-1v.14h5.92v-.22a2.82,2.82,0,0,0-2.86-3.06A3,3,0,0,0,232.76,110.91Z"/><path class="cls-1" d="M243.35,115.66H247V103.57h-3.6v-1.36h5.2v13.45h3.61V117h-8.81Z"/><path class="cls-1" d="M263.11,106.69h1.6l-5.12,12.59a2.41,2.41,0,0,1-2.65,1.74h-1.52v-1.36h2.4l1.17-2.84-4.17-10.13h1.64L258.2,111l1.55,3.93h.08l1.54-3.93Z"/><path class="cls-1" d="M183.23,140.38h3v-7.61h-3v-1.36h4.62V134h.1a3.31,3.31,0,0,1,3.48-2.6h1.45V133h-1.95a2.81,2.81,0,0,0-3.08,2.9v4.47h4v1.36h-8.62Z"/><path class="cls-1" d="M195,136.6c0-3.31,1.94-5.43,4.74-5.43s4.59,2.12,4.59,5.05V137h-7.65v.48a3,3,0,0,0,3.16,3.14,3.14,3.14,0,0,0,3-1.8l1.18.8a4.34,4.34,0,0,1-4.15,2.38C196.92,142,195,139.86,195,136.6Zm1.68-1v.14h5.93v-.22a2.83,2.83,0,0,0-2.87-3.06A3,3,0,0,0,196.72,135.63Z"/><path class="cls-1" d="M207.31,140.38h3.6V128.29h-3.6v-1.36h5.21v13.45h3.6v1.36h-8.81Z"/><path class="cls-1" d="M227.63,141.74a1.69,1.69,0,0,1-1.84-1.68h-.1a3,3,0,0,1-3.1,1.92c-2.17,0-3.55-1.2-3.55-3.14s1.34-3,4.45-3h2.2v-1c0-1.5-.9-2.28-2.46-2.28a2.94,2.94,0,0,0-2.77,1.52l-1.08-.8a4.17,4.17,0,0,1,4-2.08c2.42,0,4,1.3,4,3.48v5.69h1.44v1.4Zm-1.94-3V137h-2.2c-1.9,0-2.76.56-2.76,1.56V139c0,1.06.82,1.62,2.14,1.62C224.51,140.64,225.69,139.8,225.69,138.74Z"/><path class="cls-1" d="M236.24,141.74a2.11,2.11,0,0,1-2.28-2.36v-6.61h-3.44v-1.36h2.56c.68,0,.94-.24.94-.94v-2.7h1.54v3.64h4.71v1.36h-4.71v7.61h4.71v1.36Z"/><path class="cls-1" d="M243.09,136.6c0-3.31,1.94-5.43,4.74-5.43s4.59,2.12,4.59,5.05V137h-7.65v.48a3,3,0,0,0,3.16,3.14,3.14,3.14,0,0,0,3-1.8l1.18.8a4.33,4.33,0,0,1-4.15,2.38C245,142,243.09,139.86,243.09,136.6Zm1.68-1v.14h5.93v-.22a2.82,2.82,0,0,0-2.87-3.06A3,3,0,0,0,244.77,135.63Z"/><path class="cls-1" d="M262.27,140.06h-.08A3.38,3.38,0,0,1,259,142c-2.53,0-4-2-4-5.4s1.52-5.41,4-5.41a3.38,3.38,0,0,1,3.18,1.92h.08v-6.16h1.6v14.81h-1.6Zm0-1.62v-3.73c0-1.38-1.22-2.12-2.64-2.12a2.81,2.81,0,0,0-2.95,3.1v1.77a2.81,2.81,0,0,0,2.95,3.1C261.05,140.56,262.27,139.82,262.27,138.44Z"/><path class="cls-2" d="M78.94,45.37a12.53,12.53,0,0,1-5-.1,13.81,13.81,0,0,1-2.38-.78,13.07,13.07,0,0,1-2.19-1.23,12.82,12.82,0,0,1-4.58-5.84A13.37,13.37,0,0,1,64.13,35a12.78,12.78,0,0,1,.11-5A12.28,12.28,0,0,1,65,27.64a13.07,13.07,0,0,1,1.23-2.19A12.72,12.72,0,0,1,69.86,22a12.29,12.29,0,0,1,2.23-1.13,13.49,13.49,0,0,1,2.41-.68,12.83,12.83,0,0,1,5,.11,12.28,12.28,0,0,1,2.38.78,13.07,13.07,0,0,1,2.19,1.23A13.4,13.4,0,0,1,86,23.94a12.88,12.88,0,0,1,1.55,2,12.29,12.29,0,0,1,1.13,2.23,12.68,12.68,0,0,1,.67,2.41,12.58,12.58,0,0,1-.1,5,14.1,14.1,0,0,1-.78,2.38,13.07,13.07,0,0,1-1.23,2.19A13.4,13.4,0,0,1,85.57,42a12.88,12.88,0,0,1-2,1.55,12.29,12.29,0,0,1-2.23,1.13A12.58,12.58,0,0,1,78.94,45.37Z"/><path class="cls-2" d="M132,141.43a34.36,34.36,0,0,1-3.51.45,36.71,36.71,0,0,1-7.06-.16c-1.18-.14-2.34-.34-3.49-.59s-2.29-.57-3.41-.94-2.23-.79-3.31-1.26-2.13-1-3.16-1.58-2-1.21-3-1.89-1.9-1.4-2.79-2.17-1.75-1.58-2.57-2.43a34.66,34.66,0,0,1-2.32-2.67,34.2,34.2,0,0,1-2-2.89c-.64-1-1.22-2-1.76-3.07s-1-2.13-1.44-3.23-.8-2.22-1.12-3.36a37.32,37.32,0,0,1-1.23-7,36.84,36.84,0,0,1,.16-7.07c.14-1.17.34-2.33.59-3.48s.57-2.29.94-3.42.79-2.22,1.26-3.3,1-2.14,1.58-3.17,1.21-2,1.89-3a36.3,36.3,0,0,1,7.27-7.68c.93-.73,1.89-1.41,2.89-2s2-1.22,3.07-1.75,2.13-1,3.23-1.44,2.22-.8,3.36-1.12,2.29-.58,3.45-.79,2.33-.35,3.51-.44a34.87,34.87,0,0,1,3.54-.09,32.22,32.22,0,0,1,3.53.25c1.17.14,2.33.34,3.48.59s2.29.57,3.42.94a32.94,32.94,0,0,1,3.3,1.26c1.08.48,2.14,1,3.17,1.58s2,1.21,3,1.89a36.71,36.71,0,0,1,5.36,4.6,34.66,34.66,0,0,1,2.32,2.67c.73.93,1.41,1.89,2,2.89s1.22,2,1.75,3.07,1,2.13,1.44,3.23.8,2.22,1.12,3.36.58,2.29.79,3.45.35,2.33.44,3.51a36.71,36.71,0,0,1-.16,7.06c-.14,1.18-.34,2.34-.59,3.49s-.57,2.29-.94,3.41a32.2,32.2,0,0,1-1.26,3.31c-.48,1.08-1,2.13-1.58,3.16s-1.21,2-1.89,3a34.18,34.18,0,0,1-2.17,2.79,36.1,36.1,0,0,1-5.1,4.89,34.2,34.2,0,0,1-2.89,2c-1,.64-2,1.22-3.07,1.76s-2.13,1-3.23,1.44-2.22.8-3.36,1.12A34.36,34.36,0,0,1,132,141.43Z"/><path class="cls-3" d="M121.88,100.33l1,1.32-.67.53-1-1.33Zm-5.28-6.87,1,1.32-.68.51-1-1.32Zm-5.26-7,1,1.3-.69.51-1-1.3Zm-5.06-6.87,1,1.42-.68.51-1-1.42Zm-5-7,1,1.4-.7.49-1-1.39ZM96.3,65.52l1,1.42-.7.48L95.6,66Zm-4.78-7.11.94,1.41-.71.47-.94-1.41Zm-4.58-7.16,1,1.53-.73.45-1-1.53Zm-4.35-7.34.81,1.42-.74.42-.81-1.42Zm-4-7.75.72,1.54-.77.37c-.25-.53-.5-1-.73-1.55Zm-2.74-7.64c.13.55.28,1.09.44,1.63l-.82.24c-.16-.55-.31-1.11-.45-1.67Z"/><path class="cls-4" d="M321,22a14.87,14.87,0,0,1,2.39,1.71,15.15,15.15,0,0,1,2,2.15A14.84,14.84,0,0,1,328.47,34a14.46,14.46,0,0,1-.09,2.94,14.85,14.85,0,0,1-.67,2.86,15.38,15.38,0,0,1-1.21,2.68,15.57,15.57,0,0,1-1.72,2.39,14.79,14.79,0,0,1-4.64,3.56,15,15,0,0,1-2.75,1,15.82,15.82,0,0,1-2.9.48,15.2,15.2,0,0,1-2.94-.1,15,15,0,0,1-2.87-.67,15,15,0,0,1-5.06-2.92,15.15,15.15,0,0,1-2-2.15A14.77,14.77,0,0,1,299,38.88a14.28,14.28,0,0,1-.48-2.9,15.22,15.22,0,0,1,.09-2.94,15.63,15.63,0,0,1,.67-2.86,14.71,14.71,0,0,1,1.22-2.68,14.87,14.87,0,0,1,1.71-2.39,15.09,15.09,0,0,1,4.64-3.56,15.23,15.23,0,0,1,2.75-1,15.92,15.92,0,0,1,2.91-.48,15.1,15.1,0,0,1,2.93.1,14.78,14.78,0,0,1,2.87.67A15,15,0,0,1,321,22Z"/><path class="cls-4" d="M366.55,67.89a28.55,28.55,0,0,1-4,3.88,28.9,28.9,0,0,1-4.64,3,28.18,28.18,0,0,1-10.6,3.09,28.59,28.59,0,0,1-5.55-.06,27.9,27.9,0,0,1-5.43-1.14,28.41,28.41,0,0,1-9.68-5.31,29.12,29.12,0,0,1-3.88-4,28,28,0,0,1-5.09-9.79,28,28,0,0,1-1-5.45,28.59,28.59,0,0,1,.06-5.55,29.63,29.63,0,0,1,1.14-5.43,28.67,28.67,0,0,1,2.18-5.1,28.16,28.16,0,0,1,7.1-8.46A28.28,28.28,0,0,1,337,22.54a29,29,0,0,1,5.45-1,28.09,28.09,0,0,1,11,1.21A28.35,28.35,0,0,1,366.94,32a28.55,28.55,0,0,1,3,4.65A27.9,27.9,0,0,1,372,41.78a28.42,28.42,0,0,1,1,11,27.9,27.9,0,0,1-1.14,5.43,28.41,28.41,0,0,1-5.31,9.68Z"/><path class="cls-3" d="M299.09,35.87l-1.61.08,0-.85L299,35Zm8.84-.36-1.75.06,0-.86,1.76-.05Zm8.12,0-1.81,0v-.85c.62,0,1.23,0,1.83,0Zm8.37,1c-.58-.12-1.18-.23-1.78-.32l.14-.84c.61.09,1.21.2,1.81.32Zm8,2.49c-.51-.23-1-.45-1.58-.65l.3-.8c.56.21,1.1.44,1.63.67Zm7.15,4.51c-.45-.4-.93-.79-1.42-1.16l.51-.68c.52.39,1,.79,1.48,1.2Zm4.86,6.41a9.24,9.24,0,0,0-.46-1l.75-.4a9.39,9.39,0,0,1,.51,1.11Z"/></svg>