<svg xmlns="http://www.w3.org/2000/svg" viewBox="0 0 523.93 140.29">
  <defs>
    <style>
      .cls-1 {
        font-size: 5.67px;
      }

      .cls-1, .cls-2, .cls-8 {
        fill: #fff;
      }

      .cls-1, .cls-2 {
        font-family: IBMPlexMono, IBM Plex Mono;
      }

      .cls-2 {
        font-size: 8.5px;
      }

      .cls-3 {
        fill: #65a3ce;
      }

      .cls-4 {
        fill: #4ea7b9;
      }

      .cls-5 {
        fill: #45a9b2;
      }

      .cls-6 {
        fill: #9594c8;
      }

      .cls-7 {
        fill: #7f9dd1;
      }

      .cls-9 {
        fill: none;
        stroke: #ca99c5;
        stroke-miterlimit: 10;
        stroke-width: 0.5px;
      }

      .cls-10 {
        fill: #fccb99;
      }

      .cls-11 {
        fill: #b668a9;
      }

      .cls-12 {
        fill: #d76b6e;
      }

      .cls-13 {
        fill: #ea9b83;
      }

      .cls-14 {
        fill: #ca99c5;
      }

      .cls-15 {
        fill: #896ba9;
      }

      .cls-16 {
        fill: #db99a1;
      }
    </style>
  </defs>
  <g id="Layer_2" data-name="Layer 2">
    <g id="Layer_1-2" data-name="Layer 1">
      <text class="cls-1" transform="translate(137.42 100.42)">Identity COLOR = <tspan x="0" y="7">denotes separate </tspan><tspan x="0" y="14">question types</tspan></text>
      <text class="cls-2" transform="translate(0 7.22)">Questions about IDENTITY</text>
      <g>
        <text class="cls-1" transform="translate(25.98 27.45) scale(0.96 1)">do you see yourself <tspan x="0" y="7">as an ethicist?</tspan></text>
        <polygon class="cls-3" points="12.8 32.31 10.48 31.61 13.55 20.41 15.88 21.1 12.8 32.31"/>
        <text class="cls-1" transform="translate(0 28.05) scale(0.96 1)">1</text>
      </g>
      <g>
        <text class="cls-1" transform="translate(25.98 43.36) scale(0.96 1)">do your colleagues see <tspan x="0" y="7">you as an ethicist?</tspan></text>
        <polygon class="cls-4" points="13.56 44.12 11.27 43.31 12.79 38.55 15.09 39.35 13.56 44.12"/>
        <text class="cls-1" transform="translate(0 43.36) scale(0.96 1)">2</text>
      </g>
      <g>
        <text class="cls-1" transform="translate(25.98 61.03)">are you paid for your <tspan x="0" y="7">work on AI/data ethics?</tspan></text>
        <polygon class="cls-4" points="13.81 61.05 11.47 60.4 12.55 56.22 14.88 56.87 13.81 61.05"/>
        <text class="cls-1" transform="translate(0 61.03) scale(0.96 1)">3</text>
      </g>
      <g>
        <rect class="cls-5" x="132.4" y="21.01" width="7.12" height="2.53" transform="translate(-1.8 23.95) rotate(-10)"/>
        <text class="cls-1" transform="translate(122.2 25.22)">4</text>
        <text class="cls-1" transform="translate(150.76 25.81)">how many years have you been <tspan x="0" y="7">in the field of AI ethics?</tspan></text>
      </g>
      <g>
        <text class="cls-1" transform="translate(149.32 43.36)">which fields are closest to <tspan x="0" y="7">your education or training?</tspan></text>
        <rect class="cls-6" x="134.69" y="37.13" width="2.53" height="7.12" transform="translate(61.46 161.48) rotate(-75)"/>
        <text class="cls-1" transform="translate(122.2 43.36)">5</text>
      </g>
      <g>
        <text class="cls-1" transform="translate(149.32 61.03) scale(0.96 1)">what best describes where <tspan x="0" y="7">you are in your career?</tspan></text>
        <rect class="cls-7" x="134.84" y="55.83" width="2.24" height="6.07" transform="translate(10.28 137.32) rotate(-55.39)"/>
        <text class="cls-1" transform="translate(122.2 61.03)">6</text>
      </g>
      <path class="cls-8" d="M138.44,90.06a15.68,15.68,0,0,1-5.17-1.57c-.09-.38-.14-.72-.19-1,.73.31,1.49.64,2.25.93.38.15.76.28,1.13.41s.79.25,1.17.34a23.88,23.88,0,0,1-.73-3.77c-.34-2.71-.53-5.43-.67-8.14-.06-1.36-.12-2.72-.15-4.08a41,41,0,0,1,0-4.14l.78.14c-.09,1.23,0,2.66,0,4s.09,2.7.15,4c.14,2.7.33,5.4.67,8.07a23.66,23.66,0,0,0,.69,3.64c.28-.28.55-.54.84-.78s.59-.51.88-.75c.6-.47,1.2-.92,1.83-1.38,0,.26.08.53.13.75-.66.47-1.33,1-1.95,1.5-.31.25-.62.57-.91.84A4,4,0,0,0,138.44,90.06Z"/>
      <text class="cls-1" transform="translate(304.95 25.22)">how would you define <tspan x="0" y="7">the broad topic?</tspan></text>
      <rect class="cls-9" x="285.76" y="25.09" width="11.66" height="2.53" transform="translate(185.87 299.38) rotate(-74)"/>
      <text class="cls-1" transform="translate(276.63 25.22)">7</text>
      <text class="cls-1" transform="translate(431.09 25.22)">who is the audience <tspan x="0" y="7">of your work?</tspan></text>
      <rect class="cls-9" x="414.16" y="21.01" width="7.12" height="2.53" transform="translate(2.48 72.87) rotate(-10)"/>
      <text class="cls-1" transform="translate(399.96 25.22)">10</text>
      <text class="cls-1" transform="translate(303.76 43.36)">is there a particular <tspan x="0" y="7">domain you look at?</tspan></text>
      <rect class="cls-9" x="287.88" y="40.07" width="5.03" height="2.53" transform="translate(159.05 303.6) rotate(-71.5)"/>
      <text class="cls-1" transform="translate(276.63 43.36)">8</text>
      <g>
        <text class="cls-1" transform="translate(431.09 43.36)">do you collaborate with <tspan x="0" y="7">others in this work?</tspan></text>
        <rect class="cls-9" x="416.46" y="37.13" width="2.53" height="7.12" transform="translate(270.3 433.65) rotate(-75)"/>
        <text class="cls-1" transform="translate(399.96 43.36)">11</text>
      </g>
      <text class="cls-1" transform="translate(304.95 61.03)">what outputs is this <tspan x="0" y="7">work producing?</tspan></text>
      <rect class="cls-9" x="289.42" y="57.37" width="4.33" height="2.53" transform="matrix(0.26, -0.97, 0.97, 0.26, 159.48, 325.11)"/>
      <text class="cls-1" transform="translate(276.63 61.03)">9</text>
      <g>
        <text class="cls-1" transform="translate(431.09 61.03)">who else is involved in <tspan x="0" y="7">your work on this theme?</tspan></text>
        <rect class="cls-9" x="416.6" y="55.82" width="2.24" height="6.07" transform="translate(131.99 369.21) rotate(-55.39)"/>
        <text class="cls-1" transform="translate(399.96 61.03)">12</text>
      </g>
      <text class="cls-2" transform="translate(276.63 7.22)">Questions about work THEMES</text>
      <text class="cls-1" transform="translate(406.01 87.87)">Theme COLOR = <tspan x="0" y="7">theme bars are colored </tspan><tspan x="0" y="14">according to whether </tspan><tspan x="0" y="21">they are answers about </tspan><tspan x="0" y="28">theme 1, 2, 3 - or </tspan><tspan x="0" y="35">combinations from </tspan><tspan x="0" y="42">multiple themes</tspan></text>
      <g>
        <text class="cls-1" transform="translate(309.97 94.02)">theme 1</text>
        <text class="cls-1" transform="translate(310.97 107.43)">theme 2</text>
        <text class="cls-1" transform="translate(311.97 121.79)">theme 3</text>
        <text class="cls-1" transform="translate(355.97 93.7)">theme 1 + 2</text>
        <text class="cls-1" transform="translate(355.97 108.09)">theme 2 + 3</text>
        <text class="cls-1" transform="translate(329.97 138.08)">theme 1 + 2 + 3</text>
        <rect class="cls-10" x="298.92" y="86.37" width="2.53" height="11.66" transform="translate(5.9 201.8) rotate(-37.5)"/>
        <rect class="cls-11" x="299.92" y="104.19" width="2.53" height="3.98" transform="translate(-1.58 4.58) rotate(-0.87)"/>
        <rect class="cls-12" x="299.19" y="117.11" width="3.98" height="2.53" transform="matrix(0.78, -0.63, 0.63, 0.78, -7.31, 216.13)"/>
        <text class="cls-1" transform="translate(356.97 120.79)">theme 1 + 3</text>
        <rect class="cls-13" x="345.19" y="117.11" width="3.98" height="2.53" transform="translate(-18.32 87.51) rotate(-14)"/>
        <rect class="cls-14" x="315.35" y="134.22" width="11.66" height="2.53" transform="translate(-9.32 246.31) rotate(-41.41)"/>
        <rect class="cls-15" x="345.99" y="104.44" width="2.53" height="3.98" transform="translate(-3.63 200.19) rotate(-32)"/>
        <rect class="cls-16" x="345.92" y="90.05" width="2.53" height="3.63" transform="translate(-10.48 124.27) rotate(-20)"/>
        <path class="cls-8" d="M294.28,79.87a17.14,17.14,0,0,1-5.35.44,10.66,10.66,0,0,1-.62-1,18.31,18.31,0,0,0,4.91,0,15.07,15.07,0,0,1-2-3.29,21.23,21.23,0,0,1-1.42-12.39l.78.15a20.5,20.5,0,0,0,1.36,11.91,14.27,14.27,0,0,0,1.93,3.12,15.61,15.61,0,0,1,2.26-3.92c.11.19.21.38.33.55A15.09,15.09,0,0,0,294.28,79.87Z"/>
      </g>
    </g>
  </g>
</svg>
